<svg id="uuid-e406ec6c-5762-4039-b35a-c99559e9e232" xmlns="http://www.w3.org/2000/svg" xmlns:xlink="http://www.w3.org/1999/xlink" viewBox="0 0 1280.78 432.49" opacity="0.7"><rect x="0" y="0" width="100%" height="100% fill="white"/><defs><linearGradient id="uuid-38ebce5a-a1cf-4e7a-ad7a-7c323817cf7b" x1="325.88" y1="301.02" x2="543.38" y2="301.02" gradientUnits="userSpaceOnUse"><stop offset="0" stop-color="#7882b5"></stop><stop offset=".06" stop-color="#7b88b7"></stop><stop offset=".51" stop-color="#99b8cc"></stop><stop offset=".73" stop-color="#8fbeca"></stop><stop offset="1" stop-color="#7eccc7"></stop></linearGradient><linearGradient id="uuid-912dbcc5-6d1d-456b-89d2-d6a6796ee548" x1="374.25" y1="368.48" x2="495.72" y2="247.01" xlink:href="#uuid-38ebce5a-a1cf-4e7a-ad7a-7c323817cf7b"></linearGradient><linearGradient id="uuid-9da05ba8-7f4b-4494-9924-241e93d3b5f9" x1="704.17" y1="373.09" x2="953.85" y2="228.94" gradientUnits="userSpaceOnUse"><stop offset="0" stop-color="#99a2cc"></stop><stop offset="1" stop-color="#da85e3"></stop></linearGradient><linearGradient id="uuid-dda875a2-7a3a-42ed-b02d-8b5008d17ba0" x1="794.81" y1="357.23" x2="883.24" y2="268.8" gradientUnits="userSpaceOnUse"><stop offset="0" stop-color="#7882b5"></stop><stop offset="1" stop-color="#db94e3"></stop></linearGradient></defs><rect x="253.62" y="64.24" width="767.72" height="368.25" rx="14.21" ry="14.21" style="fill:#f5f5f7;stroke-width:0"></rect><rect x="327.38" y="193.77" width="214.5" height="214.5" rx="10.54" ry="10.54" style="fill:#fff;stroke:url(#uuid-38ebce5a-a1cf-4e7a-ad7a-7c323817cf7b);stroke-miterlimit:10;stroke-width:3px"></rect><path d="M373.18 264.2v-14.38c0-1.39 1.13-2.52 2.52-2.52h14.38c1.39.0 2.52 1.13 2.52 2.52v14.38c0 1.39-1.13 2.52-2.52 2.52H375.7c-1.39.0-2.52-1.13-2.52-2.52zm46.29.0v-14.38c0-1.94-1.58-3.52-3.52-3.52h-14.38c-1.94.0-3.52 1.58-3.52 3.52v14.38c0 1.94 1.58 3.52 3.52 3.52h14.38c1.94.0 3.52-1.58 3.52-3.52zM415.95 248.31c.84.0 1.52.68 1.52 1.52v14.38c0 .84-.68 1.52-1.52 1.52h-14.38c-.84.0-1.52-.68-1.52-1.52v-14.38c0-.84.68-1.52 1.52-1.52h14.38zm29.39 15.89v-14.38c0-1.94-1.58-3.52-3.52-3.52h-14.38c-1.94.0-3.52 1.58-3.52 3.52v14.38c0 1.94 1.58 3.52 3.52 3.52h14.38c1.94.0 3.52-1.58 3.52-3.52zM441.82 248.31c.84.0 1.52.68 1.52 1.52v14.38c0 .84-.68 1.52-1.52 1.52h-14.38c-.84.0-1.52-.68-1.52-1.52v-14.38c0-.84.68-1.52 1.52-1.52h14.38zm29.39 15.89v-14.38c0-1.94-1.58-3.52-3.52-3.52h-14.38c-1.94.0-3.52 1.58-3.52 3.52v14.38c0 1.94 1.58 3.52 3.52 3.52h14.38c1.94.0 3.52-1.58 3.52-3.52zM467.69 248.31c.84.0 1.52.68 1.52 1.52v14.38c0 .84-.68 1.52-1.52 1.52h-14.38c-.84.0-1.52-.68-1.52-1.52v-14.38c0-.84.68-1.52 1.52-1.52h14.38zm29.39 15.89v-14.38c0-1.94-1.58-3.52-3.52-3.52h-14.38c-1.94.0-3.52 1.58-3.52 3.52v14.38c0 1.94 1.58 3.52 3.52 3.52h14.38c1.94.0 3.52-1.58 3.52-3.52zM493.56 248.31c.84.0 1.52.68 1.52 1.52v14.38c0 .84-.68 1.52-1.52 1.52h-14.38c-.84.0-1.52-.68-1.52-1.52v-14.38c0-.84.68-1.52 1.52-1.52h14.38zM375.7 292.27h14.38c1.39.0 2.52-1.13 2.52-2.52v-14.38c0-1.39-1.13-2.52-2.52-2.52H375.7c-1.39.0-2.52 1.13-2.52 2.52v14.38c0 1.39 1.13 2.52 2.52 2.52zm25.87.0h14.38c1.39.0 2.52-1.13 2.52-2.52v-14.38c0-1.39-1.13-2.52-2.52-2.52h-14.38c-1.39.0-2.52 1.13-2.52 2.52v14.38c0 1.39 1.13 2.52 2.52 2.52zM445.34 289.74v-14.38c0-1.94-1.58-3.52-3.52-3.52h-14.38c-1.94.0-3.52 1.58-3.52 3.52v14.38c0 1.94 1.58 3.52 3.52 3.52h14.38c1.94.0 3.52-1.58 3.52-3.52zM441.82 273.85c.84.0 1.52.68 1.52 1.52v14.38c0 .84-.68 1.52-1.52 1.52h-14.38c-.84.0-1.52-.68-1.52-1.52v-14.38c0-.84.68-1.52 1.52-1.52h14.38zm29.39 15.89v-14.38c0-1.94-1.58-3.52-3.52-3.52h-14.38c-1.94.0-3.52 1.58-3.52 3.52v14.38c0 1.94 1.58 3.52 3.52 3.52h14.38c1.94.0 3.52-1.58 3.52-3.52zM467.69 273.85c.84.0 1.52.68 1.52 1.52v14.38c0 .84-.68 1.52-1.52 1.52h-14.38c-.84.0-1.52-.68-1.52-1.52v-14.38c0-.84.68-1.52 1.52-1.52h14.38zm29.39 15.89v-14.38c0-1.94-1.58-3.52-3.52-3.52h-14.38c-1.94.0-3.52 1.58-3.52 3.52v14.38c0 1.94 1.58 3.52 3.52 3.52h14.38c1.94.0 3.52-1.58 3.52-3.52zM493.56 273.85c.84.0 1.52.68 1.52 1.52v14.38c0 .84-.68 1.52-1.52 1.52h-14.38c-.84.0-1.52-.68-1.52-1.52v-14.38c0-.84.68-1.52 1.52-1.52h14.38zM375.7 317.81h14.38c1.39.0 2.52-1.13 2.52-2.52v-14.38c0-1.39-1.13-2.52-2.52-2.52H375.7c-1.39.0-2.52 1.13-2.52 2.52v14.38c0 1.39 1.13 2.52 2.52 2.52zm25.87.0h14.38c1.39.0 2.52-1.13 2.52-2.52v-14.38c0-1.39-1.13-2.52-2.52-2.52h-14.38c-1.39.0-2.52 1.13-2.52 2.52v14.38c0 1.39 1.13 2.52 2.52 2.52zm25.87.0h14.38c1.39.0 2.52-1.13 2.52-2.52v-14.38c0-1.39-1.13-2.52-2.52-2.52h-14.38c-1.39.0-2.52 1.13-2.52 2.52v14.38c0 1.39 1.13 2.52 2.52 2.52zM471.21 315.29v-14.38c0-1.94-1.58-3.52-3.52-3.52h-14.38c-1.94.0-3.52 1.58-3.52 3.52v14.38c0 1.94 1.58 3.52 3.52 3.52h14.38c1.94.0 3.52-1.58 3.52-3.52zM467.69 299.39c.84.0 1.52.68 1.52 1.52v14.38c0 .84-.68 1.52-1.52 1.52h-14.38c-.84.0-1.52-.68-1.52-1.52v-14.38c0-.84.68-1.52 1.52-1.52h14.38zm29.39 15.9v-14.38c0-1.94-1.58-3.52-3.52-3.52h-14.38c-1.94.0-3.52 1.58-3.52 3.52v14.38c0 1.94 1.58 3.52 3.52 3.52h14.38c1.94.0 3.52-1.58 3.52-3.52zM493.56 299.39c.84.0 1.52.68 1.52 1.52v14.38c0 .84-.68 1.52-1.52 1.52h-14.38c-.84.0-1.52-.68-1.52-1.52v-14.38c0-.84.68-1.52 1.52-1.52h14.38zM375.7 343.35h14.38c1.39.0 2.52-1.13 2.52-2.52v-14.38c0-1.39-1.13-2.52-2.52-2.52H375.7c-1.39.0-2.52 1.13-2.52 2.52v14.38c0 1.39 1.13 2.52 2.52 2.52zm25.87.0h14.38c1.39.0 2.52-1.13 2.52-2.52v-14.38c0-1.39-1.13-2.52-2.52-2.52h-14.38c-1.39.0-2.52 1.13-2.52 2.52v14.38c0 1.39 1.13 2.52 2.52 2.52zm25.87.0h14.38c1.39.0 2.52-1.13 2.52-2.52v-14.38c0-1.39-1.13-2.52-2.52-2.52h-14.38c-1.39.0-2.52 1.13-2.52 2.52v14.38c0 1.39 1.13 2.52 2.52 2.52zm25.87.0h14.38c1.39.0 2.52-1.13 2.52-2.52v-14.38c0-1.39-1.13-2.52-2.52-2.52h-14.38c-1.39.0-2.52 1.13-2.52 2.52v14.38c0 1.39 1.13 2.52 2.52 2.52zM497.08 340.83v-14.38c0-1.94-1.58-3.52-3.52-3.52h-14.38c-1.94.0-3.52 1.58-3.52 3.52v14.38c0 1.94 1.58 3.52 3.52 3.52h14.38c1.94.0 3.52-1.58 3.52-3.52zM493.56 324.93c.84.0 1.52.68 1.52 1.52v14.38c0 .84-.68 1.52-1.52 1.52h-14.38c-.84.0-1.52-.68-1.52-1.52v-14.38c0-.84.68-1.52 1.52-1.52h14.38zM375.7 368.89h14.38c1.39.0 2.52-1.13 2.52-2.52v-14.38c0-1.39-1.13-2.52-2.52-2.52H375.7c-1.39.0-2.52 1.13-2.52 2.52v14.38c0 1.39 1.13 2.52 2.52 2.52zm25.87.0h14.38c1.39.0 2.52-1.13 2.52-2.52v-14.38c0-1.39-1.13-2.52-2.52-2.52h-14.38c-1.39.0-2.52 1.13-2.52 2.52v14.38c0 1.39 1.13 2.52 2.52 2.52zm25.87.0h14.38c1.39.0 2.52-1.13 2.52-2.52v-14.38c0-1.39-1.13-2.52-2.52-2.52h-14.38c-1.39.0-2.52 1.13-2.52 2.52v14.38c0 1.39 1.13 2.52 2.52 2.52zm25.87.0h14.38c1.39.0 2.52-1.13 2.52-2.52v-14.38c0-1.39-1.13-2.52-2.52-2.52h-14.38c-1.39.0-2.52 1.13-2.52 2.52v14.38c0 1.39 1.13 2.52 2.52 2.52zm25.87.0h14.38c1.39.0 2.52-1.13 2.52-2.52v-14.38c0-1.39-1.13-2.52-2.52-2.52h-14.38c-1.39.0-2.52 1.13-2.52 2.52v14.38c0 1.39 1.13 2.52 2.52 2.52z" style="fill:url(#uuid-912dbcc5-6d1d-456b-89d2-d6a6796ee548);stroke-width:0"></path><path d="M360.63 226.02c0 1.22-.31 2.25-.92 3.08s-1.45 1.46-2.52 1.89c-1.07.43-2.29.65-3.67.65-1.22.0-2.29-.09-3.21-.26-.92-.17-1.7-.39-2.35-.66v-1.63c.73.29 1.57.54 2.54.76s2.01.33 3.14.33c1.57.0 2.84-.34 3.83-1.02.98-.68 1.48-1.69 1.48-3.02.0-.8-.19-1.47-.56-1.99-.37-.53-.95-.98-1.72-1.38-.77-.39-1.76-.79-2.97-1.19-1.15-.4-2.13-.84-2.95-1.3-.82-.47-1.45-1.06-1.89-1.78s-.66-1.62-.66-2.71.28-2.07.85-2.84c.56-.76 1.34-1.35 2.32-1.75s2.11-.6 3.37-.6c.99.0 1.94.1 2.84.29s1.75.46 2.55.8l-.57 1.43c-1.61-.69-3.23-1.03-4.87-1.03-1.41.0-2.57.31-3.45.93-.89.62-1.33 1.53-1.33 2.74.0.88.19 1.58.57 2.11s.94.97 1.66 1.33 1.62.73 2.67 1.09c1.2.42 2.24.86 3.11 1.33s1.54 1.05 2.02 1.73c.48.69.72 1.58.72 2.67z" style="fill:#3c4043;stroke-width:0"></path><path d="M370.38 215.82c1.3.0 2.39.3 3.27.9s1.54 1.43 1.98 2.48c.44 1.05.66 2.25.66 3.61v1.15H365.4c0 2.01.47 3.55 1.4 4.63s2.28 1.62 4.04 1.62c.96.0 1.79-.08 2.49-.23.71-.15 1.48-.42 2.32-.8v1.49c-.76.34-1.52.59-2.26.75-.75.15-1.62.23-2.61.23-2.27.0-4.02-.7-5.25-2.09-1.22-1.39-1.83-3.3-1.83-5.7.0-1.55.26-2.93.79-4.14.53-1.21 1.29-2.16 2.28-2.85.99-.69 2.2-1.03 3.61-1.03zM370.35 217.19c-1.39.0-2.53.47-3.4 1.4-.87.94-1.38 2.26-1.53 3.98h9.14c0-1.6-.34-2.9-1.02-3.9-.68-.99-1.74-1.49-3.2-1.49z" style="fill:#3c4043;stroke-width:0"></path><path d="M382.04 231.35h-1.63v-21.79h1.63v21.79z" style="fill:#3c4043;stroke-width:0"></path><path d="M392.99 217.42h-3.64v13.93h-1.63v-13.93h-2.81v-.89l2.81-.49v-1.49c0-1.76.38-3.05 1.13-3.88.75-.83 1.9-1.25 3.43-1.25.53.0 1.02.04 1.46.13s.84.19 1.2.3l-.37 1.38c-.34-.11-.71-.21-1.1-.29-.39-.08-.79-.11-1.19-.11-1.03.0-1.78.29-2.24.87s-.69 1.52-.69 2.82v1.58h3.64v1.32z" style="fill:#3c4043;stroke-width:0"></path><path d="M394.54 224.36v-1.49h6.94v1.49h-6.94z" style="fill:#3c4043;stroke-width:0"></path><path d="M418.31 231.35l-2.72-7.05h-8.49l-2.78 7.05h-1.69l8.03-20.52h1.55l7.85 20.52h-1.75zM415.07 222.81l-2.75-7.4c-.08-.27-.21-.69-.4-1.26s-.36-1.08-.52-1.52c-.15.5-.32 1-.49 1.5s-.32.94-.43 1.3l-2.84 7.37h7.42z" style="fill:#3c4043;stroke-width:0"></path><path d="M426.88 230.26c.42.0.83-.03 1.22-.1.39-.07.72-.15.99-.24v1.32c-.31.11-.67.21-1.08.29-.41.08-.87.11-1.36.11-1.26.0-2.24-.36-2.92-1.07-.69-.72-1.03-1.87-1.03-3.45v-9.69h-2.26v-.92l2.26-.52.57-3.53h1.03v3.64h4.7v1.32h-4.7v9.63c0 2.14.86 3.21 2.58 3.21z" style="fill:#3c4043;stroke-width:0"></path><path d="M436.62 230.26c.42.0.83-.03 1.22-.1.39-.07.72-.15.99-.24v1.32c-.31.11-.67.21-1.08.29-.41.08-.87.11-1.36.11-1.26.0-2.24-.36-2.92-1.07-.69-.72-1.03-1.87-1.03-3.45v-9.69h-2.26v-.92l2.26-.52.57-3.53h1.03v3.64h4.7v1.32h-4.7v9.63c0 2.14.86 3.21 2.58 3.21z" style="fill:#3c4043;stroke-width:0"></path><path d="M447.86 215.82c1.3.0 2.39.3 3.27.9s1.54 1.43 1.98 2.48c.44 1.05.66 2.25.66 3.61v1.15h-10.89c0 2.01.47 3.55 1.4 4.63s2.28 1.62 4.04 1.62c.96.0 1.79-.08 2.49-.23.71-.15 1.48-.42 2.32-.8v1.49c-.76.34-1.52.59-2.26.75-.75.15-1.62.23-2.61.23-2.27.0-4.02-.7-5.25-2.09-1.22-1.39-1.83-3.3-1.83-5.7.0-1.55.26-2.93.79-4.14.53-1.21 1.29-2.16 2.28-2.85.99-.69 2.2-1.03 3.61-1.03zM447.83 217.19c-1.39.0-2.53.47-3.4 1.4-.87.94-1.38 2.26-1.53 3.98h9.14c0-1.6-.34-2.9-1.02-3.9-.68-.99-1.74-1.49-3.2-1.49z" style="fill:#3c4043;stroke-width:0"></path><path d="M464.71 215.82c1.74.0 3.07.45 3.99 1.35s1.38 2.3 1.38 4.21v9.98h-1.63v-9.86c0-1.45-.33-2.52-.99-3.21s-1.63-1.03-2.91-1.03c-3.36.0-5.04 1.93-5.04 5.79v8.31h-1.61v-15.25h1.32l.23 2.64h.12c.4-.84 1.04-1.54 1.91-2.09s1.95-.83 3.25-.83z" style="fill:#3c4043;stroke-width:0"></path><path d="M479.28 230.26c.42.0.83-.03 1.22-.1.39-.07.72-.15.99-.24v1.32c-.31.11-.67.21-1.08.29-.41.08-.87.11-1.36.11-1.26.0-2.24-.36-2.92-1.07-.69-.72-1.03-1.87-1.03-3.45v-9.69h-2.26v-.92l2.26-.52.57-3.53h1.03v3.64h4.7v1.32h-4.7v9.63c0 2.14.86 3.21 2.58 3.21z" style="fill:#3c4043;stroke-width:0"></path><path d="M485.52 210.46c.76.0 1.15.41 1.15 1.23s-.38 1.26-1.15 1.26-1.09-.42-1.09-1.26.36-1.23 1.09-1.23zM486.33 216.1v15.25h-1.61V216.1h1.61z" style="fill:#3c4043;stroke-width:0"></path><path d="M504.13 223.73c0 1.59-.26 2.97-.79 4.16-.53 1.19-1.3 2.11-2.32 2.77s-2.27.99-3.74.99-2.63-.32-3.64-.97-1.79-1.57-2.34-2.75c-.54-1.18-.82-2.58-.82-4.19.0-2.48.62-4.42 1.85-5.82s2.92-2.09 5.06-2.09c1.45.0 2.68.33 3.68.99s1.76 1.58 2.28 2.77.77 2.57.77 4.16zm-11.95.0c0 1.95.41 3.52 1.23 4.72.82 1.19 2.11 1.79 3.87 1.79s3.08-.6 3.91-1.79c.83-1.19 1.25-2.77 1.25-4.72.0-1.26-.17-2.38-.52-3.35-.34-.97-.89-1.74-1.63-2.29-.75-.55-1.72-.83-2.92-.83-1.74.0-3.04.57-3.9 1.72s-1.29 2.73-1.29 4.76z" style="fill:#3c4043;stroke-width:0"></path><path d="M515.11 215.82c1.74.0 3.07.45 3.99 1.35s1.38 2.3 1.38 4.21v9.98h-1.63v-9.86c0-1.45-.33-2.52-.99-3.21s-1.63-1.03-2.91-1.03c-3.36.0-5.04 1.93-5.04 5.79v8.31h-1.61v-15.25h1.32l.23 2.64h.12c.4-.84 1.04-1.54 1.91-2.09s1.95-.83 3.25-.83z" style="fill:#3c4043;stroke-width:0"></path><path d="M502.74 52.12h-2.03V28.9h-8.07v-1.82h18.17v1.82h-8.07v23.22z" style="fill:#3c4043;stroke-width:0"></path><path d="M520 33.15c.98.0 1.82.1 2.52.32l-.28 1.82c-.37-.09-.75-.16-1.12-.21s-.77-.07-1.19-.07c-1.73.0-3.09.63-4.09 1.88-.99 1.25-1.49 2.92-1.49 5v10.24h-2V33.47h1.68l.21 3.51h.11c.47-1.05 1.17-1.95 2.12-2.7s2.12-1.12 3.53-1.12z" style="fill:#3c4043;stroke-width:0"></path><path d="M532.06 33.15c2.1.0 3.67.51 4.7 1.54 1.03 1.03 1.54 2.65 1.54 4.88v12.56h-1.51l-.39-3.16h-.07c-.65 1.05-1.47 1.9-2.46 2.54-.98.64-2.34.96-4.07.96s-3.19-.44-4.23-1.33-1.56-2.19-1.56-3.89c0-1.85.75-3.26 2.26-4.24 1.51-.98 3.72-1.53 6.65-1.65l3.4-.18v-1.3c0-1.85-.37-3.15-1.1-3.91-.74-.76-1.82-1.14-3.24-1.14-.96.0-1.88.12-2.77.37s-1.78.6-2.67 1.07l-.63-1.61c.86-.44 1.82-.81 2.88-1.09s2.14-.42 3.26-.42zM536.34 42.72l-3.16.14c-2.38.09-4.16.5-5.33 1.21-1.17.71-1.75 1.78-1.75 3.21.0 1.15.36 2.02 1.09 2.61.72.6 1.72.89 2.98.89 1.94.0 3.44-.55 4.51-1.65 1.06-1.1 1.62-2.64 1.67-4.63v-1.79z" style="fill:#3c4043;stroke-width:0"></path><path d="M552.62 33.11c2.13.0 3.75.55 4.88 1.65 1.12 1.1 1.68 2.82 1.68 5.16v12.21h-2V40.06c0-1.78-.4-3.09-1.21-3.93s-1.99-1.26-3.56-1.26c-4.12.0-6.17 2.36-6.17 7.08v10.17h-1.96V33.46h1.61l.28 3.23h.14c.49-1.03 1.27-1.88 2.33-2.56 1.06-.68 2.39-1.02 3.98-1.02z" style="fill:#3c4043;stroke-width:0"></path><path d="M576.89 47.17c0 1.71-.63 3.02-1.88 3.93s-3.03 1.37-5.35 1.37c-1.31.0-2.46-.12-3.46-.35-.99-.23-1.83-.51-2.51-.84v-1.93c.82.42 1.75.77 2.81 1.03 1.05.27 2.13.4 3.23.4 1.82.0 3.15-.31 3.96-.93.82-.62 1.23-1.47 1.23-2.54s-.43-1.82-1.28-2.37-2.13-1.12-3.84-1.7c-1.15-.4-2.16-.79-3.03-1.19-.88-.4-1.56-.92-2.05-1.56s-.74-1.51-.74-2.61c0-1.5.61-2.67 1.82-3.51s2.84-1.26 4.88-1.26c1.12.0 2.17.11 3.14.33s1.85.5 2.65.82l-.7 1.65c-.72-.33-1.54-.6-2.46-.81-.91-.21-1.82-.32-2.74-.32-1.47.0-2.62.26-3.44.77-.82.51-1.23 1.26-1.23 2.25.0.75.2 1.34.6 1.77s.97.81 1.72 1.12c.75.32 1.66.66 2.74 1.03 1.1.37 2.1.77 3 1.19.9.42 1.61.96 2.14 1.61.53.66.79 1.53.79 2.63z" style="fill:#3c4043;stroke-width:0"></path><path d="M588.85 35.07h-4.45v17.05h-2V35.07h-3.44v-1.09l3.44-.6v-1.82c0-2.15.46-3.74 1.39-4.75.92-1.02 2.32-1.53 4.19-1.53.65.0 1.25.05 1.79.16.54.1 1.03.23 1.47.37l-.46 1.68c-.42-.14-.87-.26-1.35-.35s-.96-.14-1.46-.14c-1.26.0-2.17.36-2.74 1.07-.56.71-.84 1.87-.84 3.46v1.93h4.45v1.61z" style="fill:#3c4043;stroke-width:0"></path><path d="M608.03 42.79c0 1.94-.32 3.64-.96 5.09-.64 1.45-1.59 2.58-2.84 3.38s-2.78 1.21-4.58 1.21-3.21-.4-4.45-1.19-2.19-1.92-2.86-3.37c-.67-1.45-1-3.16-1-5.12.0-3.04.75-5.41 2.26-7.12s3.57-2.56 6.19-2.56c1.78.0 3.28.4 4.51 1.21s2.16 1.94 2.79 3.38c.63 1.45.95 3.15.95 5.09zm-14.62.0c0 2.38.5 4.31 1.51 5.77s2.58 2.19 4.73 2.19 3.77-.73 4.79-2.19 1.53-3.38 1.53-5.77c0-1.54-.21-2.91-.63-4.1-.42-1.19-1.09-2.13-2-2.81s-2.1-1.02-3.58-1.02c-2.13.0-3.72.7-4.77 2.1s-1.58 3.34-1.58 5.82z" style="fill:#3c4043;stroke-width:0"></path><path d="M620.76 33.15c.98.0 1.82.1 2.53.32l-.28 1.82c-.37-.09-.75-.16-1.12-.21-.38-.05-.77-.07-1.19-.07-1.73.0-3.09.63-4.09 1.88-.99 1.25-1.49 2.92-1.49 5v10.24h-2V33.47h1.68l.21 3.51h.11c.47-1.05 1.17-1.95 2.12-2.7s2.12-1.12 3.52-1.12z" style="fill:#3c4043;stroke-width:0"></path><path d="M646.44 33.11c1.85.0 3.29.53 4.33 1.58 1.04 1.05 1.56 2.71 1.56 4.98v12.45h-1.96V39.77c0-1.68-.37-2.92-1.12-3.72-.75-.79-1.78-1.19-3.09-1.19-1.78.0-3.15.52-4.1 1.56-.96 1.04-1.44 2.65-1.44 4.82v10.87h-1.96V39.76c0-1.68-.38-2.92-1.12-3.72-.75-.79-1.78-1.19-3.09-1.19-1.78.0-3.15.54-4.1 1.63s-1.44 2.77-1.44 5.03V52.1h-1.96V33.44h1.61l.28 2.95h.14c.47-.91 1.17-1.69 2.12-2.33s2.16-.96 3.63-.96c1.36.0 2.5.29 3.44.88.93.58 1.59 1.46 1.96 2.63h.14c.51-1.12 1.31-1.99 2.38-2.6 1.08-.61 2.34-.91 3.79-.91z" style="fill:#3c4043;stroke-width:0"></path><path d="M665.38 33.11c1.59.0 2.92.37 4 1.1 1.08.74 1.88 1.75 2.42 3.03.54 1.29.81 2.76.81 4.42v1.4h-13.33c0 2.46.57 4.34 1.72 5.66 1.15 1.32 2.79 1.98 4.95 1.98 1.17.0 2.19-.09 3.05-.28.87-.19 1.81-.51 2.84-.98v1.82c-.94.42-1.86.73-2.77.91-.91.19-1.98.28-3.19.28-2.78.0-4.92-.85-6.42-2.56s-2.25-4.03-2.25-6.98c0-1.89.32-3.58.96-5.07.64-1.48 1.57-2.65 2.79-3.49s2.69-1.26 4.42-1.26zM665.34 34.79c-1.71.0-3.09.57-4.16 1.72-1.06 1.15-1.69 2.77-1.88 4.88h11.19c0-1.96-.42-3.55-1.25-4.77s-2.13-1.82-3.91-1.82z" style="fill:#3c4043;stroke-width:0"></path><path d="M685.3 33.15c.98.0 1.82.1 2.53.32l-.28 1.82c-.37-.09-.75-.16-1.12-.21-.38-.05-.77-.07-1.19-.07-1.73.0-3.09.63-4.09 1.88-.99 1.25-1.49 2.92-1.49 5v10.24h-2V33.47h1.68l.21 3.51h.11c.47-1.05 1.17-1.95 2.12-2.7s2.12-1.12 3.52-1.12z" style="fill:#3c4043;stroke-width:0"></path><path d="M701.01 27.08h6.94c3.09.0 5.37.48 6.84 1.44s2.21 2.51 2.21 4.67c0 1.45-.42 2.69-1.26 3.72s-2.05 1.68-3.61 1.96v.14c1.82.28 3.21.91 4.16 1.88.95.97 1.42 2.34 1.42 4.12.0 1.61-.37 2.95-1.11 4s-1.77 1.84-3.09 2.35-2.85.77-4.58.77H701V27.09zM703.05 38.13h5.37c2.29.0 3.95-.4 4.96-1.19s1.53-1.98 1.53-3.54-.55-2.77-1.65-3.47-2.86-1.05-5.3-1.05h-4.91v9.26zm0 1.75v10.49h5.72c4.54.0 6.8-1.82 6.8-5.47.0-1.73-.58-3-1.74-3.81s-2.95-1.21-5.38-1.21h-5.4z" style="fill:#3c4043;stroke-width:0"></path><path d="M724.76 52.12h-2V25.46h2v26.66z" style="fill:#3c4043;stroke-width:0"></path><path d="M746.5 42.79c0 1.94-.32 3.64-.96 5.09-.64 1.45-1.59 2.58-2.84 3.38s-2.78 1.21-4.58 1.21-3.21-.4-4.45-1.19-2.19-1.92-2.86-3.37c-.67-1.45-1-3.16-1-5.12.0-3.04.75-5.41 2.26-7.12s3.57-2.56 6.19-2.56c1.78.0 3.28.4 4.51 1.21s2.16 1.94 2.79 3.38c.63 1.45.95 3.15.95 5.09zm-14.62.0c0 2.38.5 4.31 1.51 5.77 1 1.46 2.58 2.19 4.73 2.19s3.77-.73 4.79-2.19 1.53-3.38 1.53-5.77c0-1.54-.21-2.91-.63-4.1-.42-1.19-1.09-2.13-2-2.81s-2.1-1.02-3.58-1.02c-2.13.0-3.72.7-4.77 2.1s-1.58 3.34-1.58 5.82z" style="fill:#3c4043;stroke-width:0"></path><path d="M759.06 52.47c-2.74.0-4.85-.84-6.33-2.51-1.49-1.67-2.23-4.03-2.23-7.07.0-2.08.37-3.85 1.12-5.31s1.79-2.57 3.14-3.33 2.91-1.14 4.68-1.14c.91.0 1.76.08 2.54.25.78.16 1.48.39 2.09.67l-.56 1.75c-1.31-.58-2.67-.88-4.07-.88-2.2.0-3.89.71-5.09 2.14-1.19 1.43-1.79 3.37-1.79 5.82s.53 4.23 1.58 5.68c1.05 1.45 2.68 2.17 4.88 2.17.93.0 1.81-.09 2.63-.28s1.56-.43 2.21-.74v1.79c-.61.3-1.31.54-2.1.72-.79.18-1.7.26-2.7.26z" style="fill:#3c4043;stroke-width:0"></path><path d="M770.25 25.46V39c0 .75-.01 1.53-.04 2.33s-.04 1.61-.04 2.4h.04c.3-.37.65-.8 1.04-1.28.39-.48.75-.91 1.1-1.28l7.08-7.72h2.38l-7.37 8 8 10.66h-2.39l-7.01-9.33-2.81 2.88v6.45h-1.96V25.45h1.96z" style="fill:#3c4043;stroke-width:0"></path><rect x="721.76" y="193.77" width="214.5" height="214.5" rx="10.54" ry="10.54" style="fill:#fff;stroke:url(#uuid-9da05ba8-7f4b-4494-9924-241e93d3b5f9);stroke-miterlimit:10;stroke-width:3px"></rect><path d="M860.31 250.52c-6.2.0-11.24 5.05-11.24 11.25v.21c.01.2.01.4.03.6.01.16.03.33.05.5.05.49.14.97.26 1.44 1.23 4.87 5.65 8.49 10.9 8.49 6.2.0 11.24-5.05 11.24-11.24s-5.04-11.25-11.24-11.25zm0 19.49c-4.55.0-8.24-3.7-8.24-8.24s3.69-8.25 8.24-8.25 8.24 3.7 8.24 8.25-3.7 8.24-8.24 8.24zM801.73 287.41l-.09.11.1-.06v-.05zM860.31 276.15c-6.03.0-10.97 4.77-11.23 10.74-.01.17-.01.33-.01.5v.22c0 .09.01.19.01.28.02.54.09 1.07.19 1.59.98 5.21 5.56 9.15 11.04 9.15 6.2.0 11.24-5.04 11.24-11.24s-5.04-11.24-11.24-11.24zm0 19.48c-4.55.0-8.24-3.7-8.24-8.24s3.69-8.24 8.24-8.24 8.24 3.7 8.24 8.24-3.7 8.24-8.24 8.24zm-57.16 15.28c-.99-5.2-5.57-9.14-11.04-9.14-6.2.0-11.25 5.04-11.25 11.24s5.05 11.24 11.25 11.24c5.47.0 10.05-3.94 11.04-9.14.13-.68.2-1.38.2-2.1s-.07-1.42-.2-2.1zm-11.04 10.34c-4.55.0-8.25-3.69-8.25-8.24s3.7-8.24 8.25-8.24 8.24 3.7 8.24 8.24-3.7 8.24-8.24 8.24zM860.31 301.77c-5.76.0-10.51 4.35-11.16 9.93-.04.27-.06.54-.07.81.0.1-.01.19-.01.29v.21c0 .45.03.89.08 1.32.65 5.58 5.41 9.92 11.16 9.92 6.2.0 11.24-5.04 11.24-11.24s-5.04-11.24-11.24-11.24zm0 19.48c-4.55.0-8.24-3.69-8.24-8.24s3.69-8.24 8.24-8.24 8.24 3.7 8.24 8.24-3.7 8.24-8.24 8.24zm-57.3 14.62c-1.24-4.86-5.66-8.47-10.9-8.47-6.2.0-11.25 5.04-11.25 11.24s5.05 11.24 11.25 11.24c5.75.0 10.51-4.35 11.16-9.93.05-.43.08-.87.08-1.31.0-.95-.12-1.88-.34-2.77zm-10.9 11.01c-4.55.0-8.25-3.7-8.25-8.24s3.7-8.24 8.25-8.24 8.24 3.69 8.24 8.24-3.7 8.24-8.24 8.24zM860.31 327.4c-5.48.0-10.06 3.94-11.04 9.14-.05.26-.09.52-.12.78-.02.17-.04.33-.05.5-.02.27-.03.54-.03.82.0.17.0.33.01.5.26 5.96 5.2 10.74 11.23 10.74s11.24-5.05 11.24-11.24-5.04-11.24-11.24-11.24zm0 19.48c-4.55.0-8.24-3.7-8.24-8.24s3.69-8.24 8.24-8.24 8.24 3.69 8.24 8.24-3.7 8.24-8.24 8.24zM860.31 353.02c-5.25.0-9.67 3.61-10.9 8.48-.05.22-.1.44-.14.66-.05.26-.1.54-.12.81-.05.35-.07.71-.08 1.07v.22c0 6.2 5.04 11.24 11.24 11.24s11.24-5.04 11.24-11.24-5.04-11.24-11.24-11.24zm0 19.48c-4.55.0-8.24-3.7-8.24-8.24s3.69-8.24 8.24-8.24 8.24 3.7 8.24 8.24-3.7 8.24-8.24 8.24zM813.33 300.2l-1.66 1.75.55.87 1.81-1.89-.7-.73zM817.27 304.34l-3.07 1.61.54.85 3.25-1.71-.72-.75zM803.15 310.91l-1.67 1.76.13.3v.26l-.13.13 1.67 1.75c.13-.68.2-1.38.2-2.1s-.07-1.42-.2-2.1zM849.08 339.14c-.01-.17-.01-.33-.01-.5.0-.28.01-.55.03-.82.01-.17.03-.33.05-.5.03-.26.07-.52.12-.78l-14.12-14.85 14-7.36c-.05-.43-.08-.87-.08-1.32v-.21c0-.1.01-.19.01-.29.01-.27.03-.54.07-.81l-14-7.36 14.12-14.86c-.1-.52-.17-1.05-.19-1.59.0-.09-.01-.19-.01-.28v-.22c0-.17.0-.33.01-.5h-13.84l14.17-22.37c-.12-.47-.21-.95-.26-1.44-.02-.17-.04-.34-.05-.5-.02-.2-.02-.4-.03-.6l-45.8 24.1c-.65-5.58-5.41-9.93-11.16-9.93-6.2.0-11.25 5.04-11.25 11.24s5.05 11.24 11.25 11.24c5.24.0 9.66-3.61 10.9-8.47l7.94 12.54-7.8 8.21c.13.68.2 1.38.2 2.1s-.07 1.42-.2 2.1l7.81 8.21-7.95 12.55c.22.89.34 1.82.34 2.77.0.44-.03.88-.08 1.31l45.8 24.09c.01-.36.03-.72.08-1.07.02-.27.07-.55.12-.81.04-.22.09-.44.14-.66l-14.17-22.36h13.84zm-56.97-43.51c-4.55.0-8.25-3.7-8.25-8.24s3.7-8.24 8.25-8.24 8.24 3.7 8.24 8.24-3.7 8.24-8.24 8.24zM801.64 287.52l.09-.11v.05l-.09.06zm32.96 50.61-6.96-10.99 20.9 10.99H834.6zM821.97 318.2l4.23-4.46 7.31 7.68-7.13 3.75-4.41-6.97zM824.77 324.5l-5.86-3.08 2.34-2.47 3.52 5.55zM821.97 307.83l4.41-6.97 7.12 3.75-7.29 7.67-4.24-4.45zM826.03 299.54l-7.13-3.74 7.52-7.91h6.99l-7.38 11.65zM825.13 300.2l-6.94 3.65-3.47-3.65 3.47-3.65 6.94 3.65zM824.78 301.52l-3.52 5.56-2.35-2.47 5.87-3.09zM821.41 308.7l3.63 3.81H819l2.41-3.81zm3.63 4.81-3.63 3.81-2.41-3.81h6.04zM820.7 318.07l-2.72 2.86-3.24-1.7 3.34-5.28 2.62 4.12zM817.27 321.69l-3.24 3.41-1.81-1.9 1.98-3.12 3.07 1.61zM818.19 322.17l6.94 3.65-6.94 3.65-3.47-3.65 3.47-3.65zM826.03 326.49l7.38 11.64h-6.99l-7.51-7.9 7.12-3.74zM848.1 336.77l-20.82-10.95 6.94-3.65 13.88 14.6zM834.43 320.93l-7.06-7.42h21.17l-14.11 7.42zM848.52 312.51h-21.14l7.05-7.42 14.09 7.42zM834.22 303.85l-6.94-3.65 20.82-10.95-13.88 14.6zM848.54 287.89l-20.9 10.99 6.96-10.99h13.94zm-14.49-1h-6.68l20.03-21.07-13.35 21.07zM848.1 263.63l-22.11 23.26h-22.11l44.22-23.26zM825.04 287.89l-7.06 7.42-14.11-7.42h21.17zM817.26 296.07l-3.23 3.4-9.72-10.22 12.95 6.82zm-12.25-4.63 8.32 8.76.7.73 3.24 3.41.72.75 2.71 2.86-2.61 4.12-3.35-5.27-.54-.85-1.98-3.13-.55-.87-6.66-10.51zm6.5 12.14 1.8 2.84-9 4.73 7.2-7.57zM813.85 307.27l3.32 5.24h-13.29l9.97-5.24zM817.17 313.51l-3.32 5.25-9.97-5.25h13.29zM804.31 314.87l9 4.74-1.8 2.84-7.2-7.58zM811.67 324.07l1.66 1.75-8.32 8.76 6.66-10.51zM814.03 326.55l3.24 3.41-12.96 6.81 9.72-10.22zM817.98 330.72l7.06 7.41h-21.16l14.1-7.41zM803.88 339.14h22.11l22.11 23.26-44.22-23.26zm43.5 21.04-20-21.04h6.67l13.33 21.04zm-45.64-72.72-.1.06.09-.11v.05z" style="fill:url(#uuid-dda875a2-7a3a-42ed-b02d-8b5008d17ba0);stroke-width:0"></path><path d="M812.44 233.98l-7.34-18.69h-.12c.04.52.07 1.11.09 1.79.02.68.03 1.4.03 2.16v14.73h-1.55V213.5h2.52l7.05 17.95h.09l7.14-17.95h2.46v20.47h-1.66v-14.91c0-.65.0-1.31.03-1.98.02-.67.05-1.27.09-1.81h-.09l-7.4 18.69h-1.35z" style="fill:#3c4043;stroke-width:0"></path><path d="M828.55 233.98v-20.47h1.66v18.98h9.57v1.49h-11.24z" style="fill:#3c4043;stroke-width:0"></path><path d="M848.42 213.52c4.91.0 7.37 1.93 7.37 5.79.0 1.97-.63 3.51-1.91 4.63-1.27 1.12-3.24 1.68-5.92 1.68h-2.98v8.37h-1.66v-20.47h5.1zM848.25 214.98h-3.27v9.2h2.81c1.99.0 3.53-.35 4.63-1.05 1.1-.7 1.65-1.94 1.65-3.74.0-1.53-.47-2.65-1.42-3.35s-2.41-1.06-4.4-1.06z" style="fill:#3c4043;stroke-width:0"></path><path d="M94.05 111.79h5.57c.35.0.63.28.63.63v16.86c0 .35-.28.63-.63.63h-5.57c-5 0-9.06-4.06-9.06-9.06h0c0-5 4.06-9.06 9.06-9.06z" style="fill:rgba(212,159,117,.5);stroke:#d49f75;stroke-miterlimit:10;stroke-width:2px"></path><path d="M186.03 111.79h5.57c.35.0.63.28.63.63v16.86c0 .35-.28.63-.63.63h-5.57c-5 0-9.06-4.06-9.06-9.06h0c0-5 4.06-9.06 9.06-9.06z" transform="translate(369.2 241.7) rotate(-180)" style="fill:rgba(212,159,117,.5);stroke:#d49f75;stroke-miterlimit:10;stroke-width:2px"></path><rect x="103.38" y="111.79" width="15.26" height="18.13" rx=".7" ry=".7" style="fill:rgba(212,159,117,.5);stroke:#d49f75;stroke-miterlimit:10;stroke-width:2px"></rect><rect x="121.78" y="111.79" width="15.26" height="18.13" rx=".7" ry=".7" style="fill:rgba(212,159,117,.5);stroke:#d49f75;stroke-miterlimit:10;stroke-width:2px"></rect><rect x="140.17" y="111.79" width="15.26" height="18.13" rx=".7" ry=".7" style="fill:rgba(212,159,117,.5);stroke:#d49f75;stroke-miterlimit:10;stroke-width:2px"></rect><rect x="158.57" y="111.79" width="15.26" height="18.13" rx=".7" ry=".7" style="fill:rgba(212,159,117,.5);stroke:#d49f75;stroke-miterlimit:10;stroke-width:2px"></rect><path d="M94.05 179.75h5.57c.35.0.63.28.63.63v16.86c0 .35-.28.63-.63.63h-5.57c-5 0-9.06-4.06-9.06-9.06h0c0-5 4.06-9.06 9.06-9.06z" style="fill:rgba(212,159,117,.5);stroke:#d49f75;stroke-miterlimit:10;stroke-width:2px"></path><path d="M186.03 179.75h5.57c.35.0.63.28.63.63v16.86c0 .35-.28.63-.63.63h-5.57c-5 0-9.06-4.06-9.06-9.06h0c0-5 4.06-9.06 9.06-9.06z" transform="translate(369.2 377.63) rotate(180)" style="fill:rgba(212,159,117,.5);stroke:#d49f75;stroke-miterlimit:10;stroke-width:2px"></path><rect x="103.38" y="179.75" width="15.26" height="18.13" rx=".7" ry=".7" style="fill:rgba(212,159,117,.5);stroke:#d49f75;stroke-miterlimit:10;stroke-width:2px"></rect><rect x="121.78" y="179.75" width="15.26" height="18.13" rx=".7" ry=".7" style="fill:rgba(212,159,117,.5);stroke:#d49f75;stroke-miterlimit:10;stroke-width:2px"></rect><rect x="140.17" y="179.75" width="15.26" height="18.13" rx=".7" ry=".7" style="fill:rgba(212,159,117,.5);stroke:#d49f75;stroke-miterlimit:10;stroke-width:2px"></rect><rect x="158.57" y="179.75" width="15.26" height="18.13" rx=".7" ry=".7" style="fill:rgba(212,159,117,.5);stroke:#d49f75;stroke-miterlimit:10;stroke-width:2px"></rect><path d="M94.05 88.01h5.57c.35.0.63.28.63.63v16.86c0 .35-.28.63-.63.63h-5.57c-5 0-9.06-4.06-9.06-9.06h0c0-5 4.06-9.06 9.06-9.06z" style="fill:rgba(212,159,117,.5);stroke:#d49f75;stroke-miterlimit:10;stroke-width:2px"></path><path d="M186.03 88.01h5.57c.35.0.63.28.63.63v16.86c0 .35-.28.63-.63.63h-5.57c-5 0-9.06-4.06-9.06-9.06h0c0-5 4.06-9.06 9.06-9.06z" transform="translate(369.2 194.15) rotate(-180)" style="fill:rgba(212,159,117,.5);stroke:#d49f75;stroke-miterlimit:10;stroke-width:2px"></path><rect x="103.38" y="88.01" width="15.26" height="18.13" rx=".7" ry=".7" style="fill:rgba(212,159,117,.5);stroke:#d49f75;stroke-miterlimit:10;stroke-width:2px"></rect><rect x="121.78" y="88.01" width="15.26" height="18.13" rx=".7" ry=".7" style="fill:rgba(212,159,117,.5);stroke:#d49f75;stroke-miterlimit:10;stroke-width:2px"></rect><rect x="140.17" y="88.01" width="15.26" height="18.13" rx=".7" ry=".7" style="fill:rgba(212,159,117,.5);stroke:#d49f75;stroke-miterlimit:10;stroke-width:2px"></rect><rect x="158.57" y="88.01" width="15.26" height="18.13" rx=".7" ry=".7" style="fill:rgba(212,159,117,.5);stroke:#d49f75;stroke-miterlimit:10;stroke-width:2px"></rect><path d="M94.05 64.24h5.57c.35.0.63.28.63.63v16.86c0 .35-.28.63-.63.63h-5.57c-5 0-9.06-4.06-9.06-9.06h0c0-5 4.06-9.06 9.06-9.06z" style="fill:rgba(212,159,117,.5);stroke:#d49f75;stroke-miterlimit:10;stroke-width:2px"></path><path d="M186.03 64.24h5.57c.35.0.63.28.63.63v16.86c0 .35-.28.63-.63.63h-5.57c-5 0-9.06-4.06-9.06-9.06h0c0-5 4.06-9.06 9.06-9.06z" transform="translate(369.2 146.6) rotate(180)" style="fill:rgba(212,159,117,.5);stroke:#d49f75;stroke-miterlimit:10;stroke-width:2px"></path><rect x="103.38" y="64.24" width="15.26" height="18.13" rx=".7" ry=".7" style="fill:rgba(212,159,117,.5);stroke:#d49f75;stroke-miterlimit:10;stroke-width:2px"></rect><rect x="121.78" y="64.24" width="15.26" height="18.13" rx=".7" ry=".7" style="fill:rgba(212,159,117,.5);stroke:#d49f75;stroke-miterlimit:10;stroke-width:2px"></rect><rect x="140.17" y="64.24" width="15.26" height="18.13" rx=".7" ry=".7" style="fill:rgba(212,159,117,.5);stroke:#d49f75;stroke-miterlimit:10;stroke-width:2px"></rect><rect x="158.57" y="64.24" width="15.26" height="18.13" rx=".7" ry=".7" style="fill:rgba(212,159,117,.5);stroke:#d49f75;stroke-miterlimit:10;stroke-width:2px"></rect><rect x="1" y="1" width="214.5" height="214.5" rx="10.54" ry="10.54" style="fill:none;stroke:#d49f75;stroke-miterlimit:10;stroke-width:2px"></rect><path d="M47.49 38.58H36.25V18.11h11.24v1.49h-9.57v7.51h9.03v1.46h-9.03v8.51h9.57v1.49z" style="fill:#3c4043;stroke-width:0"></path><path d="M67.7 23.05c1.51.0 2.69.43 3.54 1.29s1.28 2.22 1.28 4.07v10.18h-1.6V28.5c0-1.38-.31-2.39-.92-3.04s-1.45-.97-2.52-.97c-1.45.0-2.57.43-3.35 1.28s-1.18 2.16-1.18 3.94v8.89h-1.61V28.51c0-1.38-.31-2.39-.92-3.04s-1.45-.97-2.52-.97c-1.45.0-2.57.44-3.35 1.33s-1.17 2.26-1.17 4.11v8.66h-1.61V23.35h1.32l.23 2.41h.12c.38-.75.96-1.38 1.73-1.91.77-.53 1.76-.79 2.97-.79 1.11.0 2.04.24 2.81.72.76.48 1.3 1.19 1.61 2.15h.12c.42-.92 1.07-1.62 1.95-2.12.88-.5 1.91-.75 3.1-.75z" style="fill:#3c4043;stroke-width:0"></path><path d="M79 16.8v6.02c0 .54.0 1.12-.03 1.75-.02.63-.05 1.14-.09 1.52h.11c.38-.86 1.01-1.58 1.88-2.16.87-.58 1.97-.87 3.31-.87 1.97.0 3.5.66 4.59 1.99s1.63 3.29 1.63 5.89c0 2.41-.55 4.33-1.65 5.78-1.1 1.44-2.7 2.16-4.8 2.16-1.28.0-2.33-.27-3.14-.8-.81-.53-1.41-1.18-1.79-1.95h-.14l-.29 2.47h-1.23V16.81h1.63zm4.99 7.65c-1.78.0-3.05.55-3.83 1.66-.77 1.11-1.16 2.71-1.16 4.82v.2c0 2.06.37 3.64 1.1 4.72.74 1.08 1.95 1.62 3.66 1.62s2.88-.57 3.71-1.71 1.25-2.76 1.25-4.86c0-4.3-1.58-6.45-4.73-6.45z" style="fill:#3c4043;stroke-width:0"></path><path d="M100.35 23.05c1.3.0 2.39.3 3.27.9.88.6 1.54 1.43 1.98 2.48s.66 2.25.66 3.61v1.15H95.37c0 2.01.47 3.55 1.4 4.63s2.28 1.62 4.04 1.62c.96.0 1.79-.08 2.49-.23.71-.15 1.48-.42 2.32-.8v1.49c-.76.34-1.52.59-2.26.75-.75.15-1.62.23-2.61.23-2.27.0-4.02-.7-5.25-2.09-1.22-1.39-1.83-3.3-1.83-5.7.0-1.55.26-2.93.79-4.14s1.29-2.16 2.28-2.85 2.2-1.03 3.61-1.03zM100.32 24.42c-1.39.0-2.53.47-3.4 1.4-.87.94-1.38 2.26-1.53 3.98h9.14c0-1.6-.34-2.9-1.02-3.9-.68-.99-1.74-1.49-3.2-1.49z" style="fill:#3c4043;stroke-width:0"></path><path d="M115.86 38.87c-2.04.0-3.62-.65-4.72-1.96s-1.65-3.23-1.65-5.78.58-4.64 1.73-6.02 2.75-2.06 4.77-2.06c1.28.0 2.32.28 3.12.83s1.39 1.25 1.78 2.09h.11c-.02-.46-.04-.96-.07-1.52-.03-.55-.04-1.04-.04-1.46V16.8h1.63v21.79h-1.32l-.23-2.64h-.09c-.4.8-1 1.49-1.81 2.06s-1.88.86-3.24.86zM116.06 37.47c1.76.0 3.01-.53 3.76-1.6s1.12-2.61 1.12-4.62v-.29c0-2.1-.37-3.71-1.12-4.83s-1.96-1.68-3.64-1.68-2.89.58-3.73 1.73c-.84 1.16-1.26 2.8-1.26 4.94s.4 3.66 1.2 4.73 2.03 1.6 3.67 1.6z" style="fill:#3c4043;stroke-width:0"></path><path d="M133.03 38.87c-2.04.0-3.62-.65-4.72-1.96s-1.65-3.23-1.65-5.78.58-4.64 1.73-6.02 2.75-2.06 4.77-2.06c1.28.0 2.32.28 3.12.83s1.39 1.25 1.78 2.09h.11c-.02-.46-.04-.96-.07-1.52-.03-.55-.04-1.04-.04-1.46V16.8h1.63v21.79h-1.32l-.23-2.64h-.09c-.4.8-1 1.49-1.81 2.06s-1.88.86-3.24.86zM133.23 37.47c1.76.0 3.01-.53 3.76-1.6s1.12-2.61 1.12-4.62v-.29c0-2.1-.37-3.71-1.12-4.83s-1.96-1.68-3.64-1.68-2.89.58-3.73 1.73c-.84 1.16-1.26 2.8-1.26 4.94s.4 3.66 1.2 4.73 2.03 1.6 3.67 1.6z" style="fill:#3c4043;stroke-width:0"></path><path d="M145.53 17.69c.76.0 1.15.41 1.15 1.23s-.38 1.26-1.15 1.26-1.09-.42-1.09-1.26.36-1.23 1.09-1.23zM146.33 23.33v15.25h-1.61V23.33h1.61z" style="fill:#3c4043;stroke-width:0"></path><path d="M158.2 23.05c1.74.0 3.07.45 3.99 1.35.92.9 1.38 2.3 1.38 4.21v9.98h-1.63v-9.86c0-1.45-.33-2.52-.99-3.21s-1.63-1.03-2.91-1.03c-3.36.0-5.04 1.93-5.04 5.79v8.31h-1.61V23.34h1.32l.23 2.64h.12c.4-.84 1.04-1.54 1.91-2.09s1.95-.83 3.25-.83z" style="fill:#3c4043;stroke-width:0"></path><path d="M174.02 23.05c1.2.0 2.2.23 3 .69.79.46 1.43 1.1 1.91 1.92h.09l.26-2.32h1.32v15.74c0 2.01-.51 3.57-1.53 4.7s-2.7 1.69-5.03 1.69c-1.15.0-2.16-.1-3.04-.29s-1.68-.44-2.41-.75v-1.58c.73.36 1.55.65 2.48.87.93.22 1.93.33 3.02.33 1.66.0 2.89-.44 3.68-1.32.79-.88 1.19-2.07 1.19-3.58v-.89c0-.4.0-.8.03-1.2.02-.4.04-.79.06-1.18h-.09c-.42.99-1.07 1.74-1.95 2.24s-1.93.75-3.15.75c-1.99.0-3.53-.67-4.63-2.01-1.1-1.34-1.65-3.27-1.65-5.79s.55-4.42 1.65-5.86c1.1-1.44 2.7-2.16 4.8-2.16zM174.2 24.48c-1.64.0-2.88.58-3.7 1.73s-1.23 2.79-1.23 4.89.41 3.67 1.22 4.76c.81 1.09 1.99 1.63 3.54 1.63 1.26.0 2.25-.26 2.97-.77s1.23-1.22 1.53-2.12.46-1.92.46-3.07v-.97c0-1.95-.36-3.45-1.08-4.5s-1.95-1.58-3.71-1.58z" style="fill:#3c4043;stroke-width:0"></path><path d="M36.13 80.76h-7.55l.14-.66c.74.0 1.32-.05 1.73-.15.41-.1.71-.27.9-.5.19-.23.32-.54.4-.94l2.13-10.02c.03-.13.06-.24.07-.33s.02-.18.02-.26c0-.38-.21-.57-.62-.57-.16.0-.36.02-.59.05s-.49.08-.76.13c-.27.06-.54.12-.81.2l.17-.78 4.52-1.3h.69l-2.75 12.88c-.02.08-.03.16-.04.24.0.08-.01.16-.01.24.0.4.19.68.56.85.37.17 1.01.26 1.93.26l-.14.66z" style="fill:#3c4043;stroke-width:0"></path><path d="M36.23 104.45h-9.24l.17-.8 4.33-3.55c.9-.79 1.67-1.48 2.3-2.08.63-.6 1.14-1.16 1.53-1.68.39-.52.67-1.04.84-1.57s.26-1.11.26-1.74c0-.69-.2-1.25-.59-1.68s-.98-.64-1.75-.64-1.46.17-2.05.52c-.59.35-1.23.96-1.91 1.85l-.52-.24c.66-1.12 1.42-2 2.29-2.65.86-.65 1.91-.97 3.14-.97 1.12.0 2 .3 2.65.9.65.6.97 1.41.97 2.42.0.82-.19 1.58-.57 2.27-.38.7-.96 1.42-1.73 2.17s-1.76 1.62-2.96 2.62l-3.65 2.96-.02.12 1.59-.07h3.29c.43.0.77-.06 1.03-.19s.5-.33.72-.6.47-.65.76-1.12h.69l-1.56 3.79z" style="fill:#3c4043;stroke-width:0"></path><path d="M30.19 128.47c-.66.0-1.16-.06-1.5-.17-.34-.11-.57-.26-.7-.45-.13-.19-.19-.39-.19-.59.0-.25.09-.51.27-.76s.45-.38.82-.38c.25.0.48.06.67.18.2.12.41.25.63.4s.48.28.78.4.67.18 1.11.18c.58.0 1.16-.11 1.72-.34s1.02-.6 1.39-1.12c.36-.52.54-1.21.54-2.08.0-.6-.17-1.12-.5-1.56s-.77-.79-1.33-1.03c-.55-.25-1.17-.37-1.85-.37h-.47l.19-.9h.35c.65.0 1.29-.16 1.93-.47.64-.32 1.18-.75 1.61-1.31s.65-1.19.65-1.88c0-.62-.19-1.07-.56-1.36-.37-.29-.87-.44-1.5-.44-.76.0-1.4.17-1.92.51-.52.34-1.05.83-1.59 1.46l-.47-.31c.69-1.01 1.43-1.79 2.2-2.33.77-.54 1.71-.82 2.79-.82 1.03.0 1.8.25 2.33.75s.79 1.12.79 1.88c0 .65-.14 1.21-.41 1.69-.28.48-.66.91-1.16 1.29-.5.38-1.09.76-1.76 1.14v.07c.76.25 1.4.64 1.92 1.15s.78 1.19.78 2.03c0 .9-.21 1.69-.63 2.38s-.99 1.27-1.71 1.74-1.53.83-2.43 1.08c-.9.25-1.84.37-2.82.37z" style="fill:#3c4043;stroke-width:0"></path><path d="M32.85 195.46h-.78l-1.33-12.81c-.06-.54-.16-.96-.28-1.27-.13-.31-.31-.53-.56-.67-.24-.14-.58-.21-1.01-.21l.05-.71h5.8l-.07.71c-.6.0-1.07.12-1.42.36s-.51.62-.47 1.16c0 .08.01.22.04.43.02.21.04.35.04.43l.71 6.75.17 2.77h.12l1.37-2.08 5.09-7.63c.22-.32.4-.61.53-.88.13-.27.2-.5.2-.69.0-.24-.1-.4-.31-.49s-.58-.13-1.11-.13l.05-.71h5.12l-.05.71c-.32.0-.6.03-.84.09-.25.06-.48.19-.7.37-.22.18-.46.44-.72.77s-.57.77-.94 1.3l-8.69 12.43z" style="fill:#3c4043;stroke-width:0"></path><line x1="48.44" y1="73.3" x2="75.37" y2="73.3" style="fill:none;stroke:#3c4043;stroke-miterlimit:10"></line><path d="M74.97 73.3c-1.04-1.04-1.54-3.11-1.58-4.54 1.43 1.92 3.29 3.6 5.55 4.54-2.25.9-4.03 2.68-5.55 4.54.12-1.54.5-3.4 1.58-4.54z" style="fill:#3c4043;stroke-width:0"></path><line x1="48.44" y1="97.08" x2="75.37" y2="97.08" style="fill:none;stroke:#3c4043;stroke-miterlimit:10"></line><path d="M74.97 97.08c-1.04-1.04-1.54-3.11-1.58-4.54 1.43 1.92 3.29 3.6 5.55 4.54-2.25.9-4.03 2.68-5.55 4.54.12-1.54.5-3.4 1.58-4.54z" style="fill:#3c4043;stroke-width:0"></path><line x1="48.44" y1="120.85" x2="75.37" y2="120.85" style="fill:none;stroke:#3c4043;stroke-miterlimit:10"></line><path d="M74.97 120.85c-1.04-1.04-1.54-3.11-1.58-4.54 1.43 1.92 3.29 3.6 5.55 4.54-2.25.9-4.03 2.68-5.55 4.54.12-1.54.5-3.4 1.58-4.54z" style="fill:#3c4043;stroke-width:0"></path><line x1="228.86" y1="108.25" x2="557.88" y2="108.25" style="fill:none;stroke:#3c4043;stroke-miterlimit:10;stroke-width:2px"></line><polygon points="555.69 115.73 568.65 108.25 555.69 100.77 555.69 115.73" style="fill:#3c4043;stroke-width:0"></polygon><line x1="615.85" y1="108.25" x2="940.49" y2="108.25" style="fill:none;stroke:#3c4043;stroke-miterlimit:10;stroke-width:2px"></line><polygon points="938.31 115.73 951.26 108.25 938.31 100.77 938.31 115.73" style="fill:#3c4043;stroke-width:0"></polygon><line x1="1001.98" y1="108.54" x2="1053.08" y2="108.54" style="fill:none;stroke:#3c4043;stroke-miterlimit:10;stroke-width:2px"></line><polygon points="1050.89 116.02 1063.85 108.54 1050.89 101.06 1050.89 116.02" style="fill:#3c4043;stroke-width:0"></polygon><line x1="48.44" y1="188.82" x2="75.37" y2="188.82" style="fill:none;stroke:#3c4043;stroke-miterlimit:10"></line><path d="M74.97 188.82c-1.04-1.04-1.54-3.11-1.58-4.54 1.43 1.92 3.29 3.6 5.55 4.54-2.25.9-4.03 2.68-5.55 4.54.12-1.54.5-3.4 1.58-4.54z" style="fill:#3c4043;stroke-width:0"></path><circle cx="62.45" cy="153.9" r="2.75" style="fill:#3c4043;stroke-width:0"></circle><circle cx="62.45" cy="140.79" r="2.75" style="fill:#3c4043;stroke-width:0"></circle><circle cx="62.45" cy="167.01" r="2.75" style="fill:#3c4043;stroke-width:0"></circle><circle cx="1243.45" cy="197.08" r="1.12" style="fill:#3c4043;stroke-width:0"></circle><circle cx="1250.1" cy="197.08" r="1.12" style="fill:#3c4043;stroke-width:0"></circle><circle cx="1236.81" cy="197.08" r="1.12" style="fill:#3c4043;stroke-width:0"></circle><path d="M1079.08 89.19h5.57c.35.0.63.28.63.63v16.86c0 .35-.28.63-.63.63h-5.57c-5 0-9.06-4.06-9.06-9.06h0c0-5 4.06-9.06 9.06-9.06z" style="fill:rgba(212,159,117,.5);stroke:#d49f75;stroke-miterlimit:10;stroke-width:2px"></path><path d="M1171.07 89.19h5.57c.35.0.63.28.63.63v16.86c0 .35-.28.63-.63.63h-5.57c-5 0-9.06-4.06-9.06-9.06h0c0-5 4.06-9.06 9.06-9.06z" transform="translate(2339.28 196.5) rotate(-180)" style="fill:rgba(212,159,117,.5);stroke:#d49f75;stroke-miterlimit:10;stroke-width:2px"></path><rect x="1088.42" y="89.19" width="15.26" height="18.13" rx=".7" ry=".7" style="fill:rgba(212,159,117,.5);stroke:#d49f75;stroke-miterlimit:10;stroke-width:2px"></rect><rect x="1106.82" y="89.19" width="15.26" height="18.13" rx=".7" ry=".7" style="fill:rgba(212,159,117,.5);stroke:#d49f75;stroke-miterlimit:10;stroke-width:2px"></rect><rect x="1125.21" y="89.19" width="15.26" height="18.13" rx=".7" ry=".7" style="fill:rgba(212,159,117,.5);stroke:#d49f75;stroke-miterlimit:10;stroke-width:2px"></rect><rect x="1179.67" y="167.7" width="15.59" height="18.74" style="fill:rgba(212,159,117,.5);stroke:#d49f75;stroke-miterlimit:10"></rect><rect x="1197.92" y="153" width="15.59" height="33.44" style="fill:rgba(212,159,117,.5);stroke:#d49f75;stroke-miterlimit:10"></rect><rect x="1216.87" y="175.68" width="15.59" height="10.76" style="fill:rgba(212,159,117,.5);stroke:#d49f75;stroke-miterlimit:10"></rect><rect x="1253.42" y="161.12" width="15.59" height="25.32" style="fill:rgba(212,159,117,.5);stroke:#d49f75;stroke-miterlimit:10"></rect><rect x="1143.61" y="89.19" width="15.26" height="18.13" rx=".7" ry=".7" style="fill:rgba(212,159,117,.5);stroke:#d49f75;stroke-miterlimit:10;stroke-width:2px"></rect><rect x="1065.28" y="1" width="214.5" height="214.5" rx="10.54" ry="10.54" style="fill:none;stroke:#d49f75;stroke-miterlimit:10;stroke-width:2px"></rect><path d="M1096.82 18.12v13.24c0 2.33-.68 4.17-2.04 5.5-1.36 1.34-3.27 2.01-5.73 2.01s-4.33-.67-5.65-2.01-1.98-3.19-1.98-5.56V18.11h1.66V31.3c0 1.99.52 3.5 1.55 4.54s2.54 1.56 4.53 1.56 3.42-.52 4.46-1.56 1.56-2.5 1.56-4.37V18.11h1.63z" style="fill:#3c4043;stroke-width:0"></path><path d="M1108.83 23.05c1.74.0 3.07.45 3.99 1.35.92.9 1.38 2.3 1.38 4.21v9.98h-1.63v-9.86c0-1.45-.33-2.52-.99-3.21s-1.63-1.03-2.91-1.03c-3.36.0-5.04 1.93-5.04 5.79v8.31h-1.61V23.34h1.32l.23 2.64h.12c.4-.84 1.04-1.54 1.91-2.09.87-.55 1.95-.83 3.25-.83z" style="fill:#3c4043;stroke-width:0"></path><path d="M1124.88 23.05c1.3.0 2.39.3 3.27.9.88.6 1.54 1.43 1.98 2.48s.66 2.25.66 3.61v1.15h-10.89c0 2.01.47 3.55 1.4 4.63s2.28 1.62 4.04 1.62c.96.0 1.79-.08 2.49-.23.71-.15 1.48-.42 2.32-.8v1.49c-.76.34-1.52.59-2.26.75-.75.15-1.62.23-2.61.23-2.27.0-4.02-.7-5.25-2.09-1.22-1.39-1.83-3.3-1.83-5.7.0-1.55.26-2.93.79-4.14s1.29-2.16 2.28-2.85 2.2-1.03 3.61-1.03zM1124.85 24.42c-1.39.0-2.53.47-3.4 1.4-.87.94-1.38 2.26-1.53 3.98h9.14c0-1.6-.34-2.9-1.02-3.9-.68-.99-1.74-1.49-3.2-1.49z" style="fill:#3c4043;stroke-width:0"></path><path d="M1150.85 23.05c1.51.0 2.69.43 3.54 1.29s1.28 2.22 1.28 4.07v10.18h-1.6V28.5c0-1.38-.31-2.39-.92-3.04-.61-.65-1.45-.97-2.52-.97-1.45.0-2.57.43-3.35 1.28s-1.18 2.16-1.18 3.94v8.89h-1.61V28.51c0-1.38-.31-2.39-.92-3.04-.61-.65-1.45-.97-2.52-.97-1.45.0-2.57.44-3.35 1.33s-1.17 2.26-1.17 4.11v8.66h-1.61V23.35h1.32l.23 2.41h.12c.38-.75.96-1.38 1.73-1.91s1.76-.79 2.97-.79c1.11.0 2.04.24 2.81.72.76.48 1.3 1.19 1.61 2.15h.12c.42-.92 1.07-1.62 1.95-2.12s1.91-.75 3.1-.75z" style="fill:#3c4043;stroke-width:0"></path><path d="M1162.15 16.8v6.02c0 .54.0 1.12-.03 1.75-.02.63-.05 1.14-.09 1.52h.11c.38-.86 1.01-1.58 1.88-2.16.87-.58 1.97-.87 3.31-.87 1.97.0 3.5.66 4.59 1.99s1.63 3.29 1.63 5.89c0 2.41-.55 4.33-1.65 5.78-1.1 1.44-2.7 2.16-4.8 2.16-1.28.0-2.33-.27-3.14-.8-.81-.53-1.41-1.18-1.79-1.95h-.14l-.29 2.47h-1.23V16.81h1.63zM1167.14 24.45c-1.78.0-3.05.55-3.83 1.66-.77 1.11-1.16 2.71-1.16 4.82v.2c0 2.06.37 3.64 1.1 4.72.74 1.08 1.95 1.62 3.66 1.62s2.88-.57 3.71-1.71 1.25-2.76 1.25-4.86c0-4.3-1.58-6.45-4.73-6.45z" style="fill:#3c4043;stroke-width:0"></path><path d="M1183.51 23.05c1.3.0 2.39.3 3.27.9.88.6 1.54 1.43 1.98 2.48s.66 2.25.66 3.61v1.15h-10.89c0 2.01.47 3.55 1.4 4.63s2.28 1.62 4.04 1.62c.96.0 1.79-.08 2.49-.23.71-.15 1.48-.42 2.32-.8v1.49c-.76.34-1.52.59-2.26.75-.75.15-1.62.23-2.61.23-2.27.0-4.02-.7-5.25-2.09-1.22-1.39-1.83-3.3-1.83-5.7.0-1.55.26-2.93.79-4.14s1.29-2.16 2.28-2.85 2.2-1.03 3.61-1.03zM1183.48 24.42c-1.39.0-2.53.47-3.4 1.4-.87.94-1.38 2.26-1.53 3.98h9.14c0-1.6-.34-2.9-1.02-3.9-.68-.99-1.74-1.49-3.2-1.49z" style="fill:#3c4043;stroke-width:0"></path><path d="M1199.01 38.87c-2.04.0-3.62-.65-4.72-1.96-1.1-1.31-1.65-3.23-1.65-5.78s.58-4.64 1.73-6.02 2.75-2.06 4.77-2.06c1.28.0 2.32.28 3.12.83s1.39 1.25 1.78 2.09h.11c-.02-.46-.04-.96-.07-1.52-.03-.55-.04-1.04-.04-1.46V16.8h1.63v21.79h-1.32l-.23-2.64h-.09c-.4.8-1 1.49-1.81 2.06s-1.88.86-3.24.86zM1199.21 37.47c1.76.0 3.01-.53 3.76-1.6s1.12-2.61 1.12-4.62v-.29c0-2.1-.37-3.71-1.12-4.83s-1.96-1.68-3.64-1.68-2.89.58-3.73 1.73c-.84 1.16-1.26 2.8-1.26 4.94s.4 3.66 1.2 4.73 2.03 1.6 3.67 1.6z" style="fill:#3c4043;stroke-width:0"></path><path d="M1216.18 38.87c-2.04.0-3.62-.65-4.72-1.96-1.1-1.31-1.65-3.23-1.65-5.78s.58-4.64 1.73-6.02 2.75-2.06 4.77-2.06c1.28.0 2.32.28 3.12.83s1.39 1.25 1.78 2.09h.11c-.02-.46-.04-.96-.07-1.52-.03-.55-.04-1.04-.04-1.46V16.8h1.63v21.79h-1.32l-.23-2.64h-.09c-.4.8-1 1.49-1.81 2.06s-1.88.86-3.24.86zM1216.38 37.47c1.76.0 3.01-.53 3.76-1.6s1.12-2.61 1.12-4.62v-.29c0-2.1-.37-3.71-1.12-4.83s-1.96-1.68-3.64-1.68-2.89.58-3.73 1.73c-.84 1.16-1.26 2.8-1.26 4.94s.4 3.66 1.2 4.73 2.03 1.6 3.67 1.6z" style="fill:#3c4043;stroke-width:0"></path><path d="M1228.68 17.69c.76.0 1.15.41 1.15 1.23s-.38 1.26-1.15 1.26-1.09-.42-1.09-1.26.36-1.23 1.09-1.23zM1229.48 23.33v15.25h-1.61V23.33h1.61z" style="fill:#3c4043;stroke-width:0"></path><path d="M1241.35 23.05c1.74.0 3.07.45 3.99 1.35.92.9 1.38 2.3 1.38 4.21v9.98h-1.63v-9.86c0-1.45-.33-2.52-.99-3.21s-1.63-1.03-2.91-1.03c-3.36.0-5.04 1.93-5.04 5.79v8.31h-1.61V23.34h1.32l.23 2.64h.12c.4-.84 1.04-1.54 1.91-2.09.87-.55 1.95-.83 3.25-.83z" style="fill:#3c4043;stroke-width:0"></path><path d="M1257.18 23.05c1.2.0 2.2.23 3 .69.79.46 1.43 1.1 1.91 1.92h.09l.26-2.32h1.32v15.74c0 2.01-.51 3.57-1.53 4.7s-2.7 1.69-5.03 1.69c-1.15.0-2.16-.1-3.04-.29-.88-.19-1.68-.44-2.41-.75v-1.58c.73.36 1.55.65 2.48.87s1.93.33 3.02.33c1.66.0 2.89-.44 3.68-1.32s1.19-2.07 1.19-3.58v-.89c0-.4.0-.8.03-1.2.02-.4.04-.79.06-1.18h-.09c-.42.99-1.07 1.74-1.95 2.24s-1.93.75-3.15.75c-1.99.0-3.53-.67-4.63-2.01-1.1-1.34-1.65-3.27-1.65-5.79s.55-4.42 1.65-5.86c1.1-1.44 2.7-2.16 4.8-2.16zM1257.35 24.48c-1.64.0-2.88.58-3.7 1.73s-1.23 2.79-1.23 4.89.41 3.67 1.22 4.76c.81 1.09 1.99 1.63 3.54 1.63 1.26.0 2.25-.26 2.97-.77s1.23-1.22 1.53-2.12.46-1.92.46-3.07v-.97c0-1.95-.36-3.45-1.08-4.5s-1.95-1.58-3.71-1.58z" style="fill:#3c4043;stroke-width:0"></path><path d="M1188.58 202.44h-5.83l.11-.51c.57.0 1.02-.04 1.33-.12.32-.08.55-.21.69-.38.15-.18.25-.42.31-.72l1.64-7.73c.02-.1.04-.18.05-.26.01-.07.02-.14.02-.2.0-.29-.16-.44-.48-.44-.12.0-.27.01-.46.04-.18.02-.38.06-.58.1-.21.04-.42.09-.62.16l.13-.6 3.49-1.01h.53l-2.12 9.94c-.01.06-.02.12-.03.18.0.06.0.12.0.18.0.3.14.52.43.66.29.13.78.2 1.49.2l-.11.51z" style="fill:#3c4043;stroke-width:0"></path><path d="M1208.14 202.44h-7.13l.13-.62 3.34-2.74c.69-.61 1.29-1.15 1.77-1.61.49-.46.88-.9 1.18-1.3s.51-.81.65-1.22.2-.86.2-1.34c0-.54-.15-.97-.46-1.3-.3-.33-.75-.49-1.35-.49s-1.12.13-1.58.4-.95.74-1.47 1.43l-.4-.18c.51-.86 1.1-1.55 1.76-2.05s1.47-.75 2.42-.75c.87.0 1.55.23 2.05.69s.75 1.08.75 1.86c0 .63-.15 1.22-.44 1.75-.29.54-.74 1.09-1.33 1.67s-1.36 1.25-2.28 2.02l-2.81 2.28-.02.09 1.22-.05h2.54c.33.0.59-.05.79-.15s.39-.25.56-.47c.17-.21.37-.5.58-.87h.53l-1.21 2.92z" style="fill:#3c4043;stroke-width:0"></path><path d="M1222.43 202.67c-.51.0-.9-.04-1.16-.13s-.44-.2-.54-.35-.15-.3-.15-.46c0-.19.07-.39.21-.58.14-.19.35-.29.63-.29.19.0.37.05.52.14s.31.19.48.31.37.22.6.31.52.14.86.14c.45.0.89-.09 1.33-.27.43-.18.79-.47 1.07-.87s.42-.94.42-1.61c0-.46-.13-.87-.38-1.21-.26-.34-.6-.61-1.02-.79-.43-.19-.9-.28-1.42-.28h-.37l.15-.69h.27c.5.0 1-.12 1.49-.37.49-.24.91-.58 1.24-1.01.33-.43.5-.92.5-1.45.0-.48-.14-.83-.43-1.05-.29-.23-.67-.34-1.16-.34-.58.0-1.08.13-1.48.39s-.81.64-1.22 1.12l-.37-.24c.54-.78 1.1-1.38 1.7-1.8.6-.42 1.32-.63 2.16-.63.79.0 1.39.19 1.8.58s.61.87.61 1.45c0 .5-.11.94-.32 1.31s-.51.7-.9 1c-.38.29-.84.58-1.36.88v.05c.58.2 1.08.49 1.48.89.4.4.6.92.6 1.56.0.69-.16 1.31-.48 1.84s-.76.98-1.32 1.34c-.55.37-1.18.64-1.87.83-.69.19-1.42.28-2.17.28z" style="fill:#3c4043;stroke-width:0"></path><path d="M1259.85 202.53h-.6l-1.02-9.89c-.05-.41-.12-.74-.22-.98-.1-.24-.24-.41-.43-.52s-.45-.16-.78-.16l.04-.55h4.48l-.05.55c-.46.0-.83.09-1.1.27s-.39.48-.37.9c0 .06.0.17.03.33.02.16.03.27.03.33l.55 5.21.13 2.14h.09l1.06-1.61 3.93-5.88c.17-.24.31-.47.41-.68s.16-.38.16-.53c0-.18-.08-.31-.24-.37s-.45-.1-.86-.1l.04-.55h3.95l-.04.55c-.24.0-.46.02-.65.07s-.37.14-.54.28-.36.34-.56.59-.44.59-.72 1.01l-6.71 9.59z" style="fill:#3c4043;stroke-width:0"></path><line x1="228.86" y1="108.25" x2="232.86" y2="108.25" style="fill:none;stroke:#3c4043;stroke-miterlimit:10;stroke-width:1.5px"></line><path d="M241.01 108.25h27.74c9.1.0 16.48 7.38 16.48 16.48v147.7c0 13.78 10.74 25.05 24.3 25.9" style="fill:none;stroke:#3c4043;stroke-dasharray:0 0 8.15 8.15;stroke-miterlimit:10;stroke-width:1.5px"></path><line x1="313.61" y1="298.39" x2="317.61" y2="298.39" style="fill:none;stroke:#3c4043;stroke-miterlimit:10;stroke-width:1.5px"></line><polygon points="315.97 304 325.68 298.39 315.97 292.78 315.97 304" style="fill:#3c4043;stroke-width:0"></polygon><line x1="615.85" y1="108.25" x2="619.85" y2="108.25" style="fill:none;stroke:#3c4043;stroke-miterlimit:10;stroke-width:1.5px"></line><path d="M627.63 108.25h32.11c9.1.0 16.48 7.38 16.48 16.48v147.7c0 13.84 10.84 25.15 24.49 25.92" style="fill:none;stroke:#3c4043;stroke-dasharray:0 0 7.78 7.78;stroke-miterlimit:10;stroke-width:1.5px"></path><line x1="704.6" y1="298.39" x2="708.6" y2="298.39" style="fill:none;stroke:#3c4043;stroke-miterlimit:10;stroke-width:1.5px"></line><polygon points="706.96 304 716.67 298.39 706.96 292.78 706.96 304" style="fill:#3c4043;stroke-width:0"></polygon><line x1="545.57" y1="298.39" x2="549.57" y2="298.39" style="fill:none;stroke:#3c4043;stroke-miterlimit:10;stroke-width:1.5px"></line><path d="M557.7 298.39h18.07c9.1.0 16.48-7.38 16.48-16.48V150.97" style="fill:none;stroke:#3c4043;stroke-dasharray:0 0 8.13 8.13;stroke-miterlimit:10;stroke-width:1.5px"></path><line x1="592.25" y1="146.9" x2="592.25" y2="142.9" style="fill:none;stroke:#3c4043;stroke-miterlimit:10;stroke-width:1.5px"></line><polygon points="597.86 144.54 592.25 134.83 586.64 144.54 597.86 144.54" style="fill:#3c4043;stroke-width:0"></polygon><line x1="938.26" y1="298.39" x2="942.26" y2="298.39" style="fill:none;stroke:#3c4043;stroke-miterlimit:10;stroke-width:1.5px"></line><path d="M949.96 298.39h8.5c9.1.0 16.48-7.38 16.48-16.48V150.75" style="fill:none;stroke:#3c4043;stroke-dasharray:0 0 7.7 7.7;stroke-miterlimit:10;stroke-width:1.5px"></path><line x1="974.95" y1="146.9" x2="974.95" y2="142.9" style="fill:none;stroke:#3c4043;stroke-miterlimit:10;stroke-width:1.5px"></line><polygon points="980.56 144.54 974.95 134.83 969.34 144.54 980.56 144.54" style="fill:#3c4043;stroke-width:0"></polygon><circle cx="592.25" cy="109.39" r="18.52" style="fill:none;stroke:#3c4043;stroke-miterlimit:10;stroke-width:2px"></circle><path d="M605.5 108.85v2.17c0 .69-.55 1.24-1.24 1.24h-9.68v9.63c0 .72-.58 1.29-1.29 1.29h-2.08c-.71.0-1.29-.57-1.29-1.29v-9.63h-9.68c-.68.0-1.24-.55-1.24-1.24v-2.17c0-.69.56-1.25 1.24-1.25h9.68v-9.63c0-.71.58-1.29 1.29-1.29h2.08c.71.0 1.29.58 1.29 1.29v9.63h9.68c.69.0 1.24.56 1.24 1.25z" style="fill:#3c4043;stroke-width:0"></path><circle cx="974.95" cy="109.39" r="18.52" style="fill:none;stroke:#3c4043;stroke-miterlimit:10;stroke-width:2px"></circle><path d="M988.19 108.85v2.17c0 .69-.55 1.24-1.24 1.24h-9.68v9.63c0 .72-.58 1.29-1.29 1.29h-2.08c-.71.0-1.29-.57-1.29-1.29v-9.63h-9.68c-.68.0-1.24-.55-1.24-1.24v-2.17c0-.69.56-1.25 1.24-1.25h9.68v-9.63c0-.71.58-1.29 1.29-1.29h2.08c.71.0 1.29.58 1.29 1.29v9.63h9.68c.69.0 1.24.56 1.24 1.25z" style="fill:#3c4043;stroke-width:0"></path><polyline points="1177.27 123.57 1177.27 186.44 1269.02 186.44" style="fill:none;stroke:#3c4043;stroke-linecap:square;stroke-miterlimit:10"></polyline><path d="M1123.74 115.92c0 25.14 11.57 46.6 43.16 46.6" style="fill:none;stroke:#3c4043;stroke-miterlimit:10"></path><path d="M1166.5 162.53c-1.04-1.04-1.54-3.11-1.58-4.54 1.43 1.92 3.29 3.6 5.55 4.54-2.25.9-4.03 2.68-5.55 4.54.12-1.54.5-3.4 1.58-4.54z" style="fill:#3c4043;stroke-width:0"></path></svg>
