<svg id="uuid-e406ec6c-5762-4039-b35a-c99559e9e232" xmlns="http://www.w3.org/2000/svg"
    xmlns:xlink="http://www.w3.org/1999/xlink" viewBox="0 0 1280.78 432.49" opacity="0.7">
    <rect x="0" y="0" width="100%" height="100%" fill="white" rx="10" ry="10" />
    <defs>
        <linearGradient id="uuid-38ebce5a-a1cf-4e7a-ad7a-7c323817cf7b" x1="325.88" y1="301.02" x2="543.38" y2="301.02"
            gradientUnits="userSpaceOnUse">
            <stop offset="0" stop-color="#7882b5"></stop>
            <stop offset=".06" stop-color="#7b88b7"></stop>
            <stop offset=".51" stop-color="#99b8cc"></stop>
            <stop offset=".73" stop-color="#8fbeca"></stop>
            <stop offset="1" stop-color="#7eccc7"></stop>
        </linearGradient>
        <linearGradient id="uuid-912dbcc5-6d1d-456b-89d2-d6a6796ee548" x1="374.25" y1="368.48" x2="495.72" y2="247.01"
            xlink:href="#uuid-38ebce5a-a1cf-4e7a-ad7a-7c323817cf7b"></linearGradient>
        <linearGradient id="uuid-9da05ba8-7f4b-4494-9924-241e93d3b5f9" x1="704.17" y1="373.09" x2="953.85" y2="228.94"
            gradientUnits="userSpaceOnUse">
            <stop offset="0" stop-color="#99a2cc"></stop>
            <stop offset="1" stop-color="#da85e3"></stop>
        </linearGradient>
        <linearGradient id="uuid-dda875a2-7a3a-42ed-b02d-8b5008d17ba0" x1="794.81" y1="357.23" x2="883.24" y2="268.8"
            gradientUnits="userSpaceOnUse">
            <stop offset="0" stop-color="#7882b5"></stop>
            <stop offset="1" stop-color="#db94e3"></stop>
        </linearGradient>
    </defs>
    <rect x="253.6" y="64.2" width="767.7" height="368.3" rx="14.2" ry="14.2" style="fill: #f5f5f7; stroke-width: 0">
    </rect>
    <rect x="327.4" y="193.8" width="214.5" height="214.5" rx="10.5" ry="10.5"
        style="fill: #ffffff; stroke: url(#uuid-38ebce5a-a1cf-4e7a-ad7a-7c323817cf7b); stroke-width: 3px; stroke-miterlimit: 10">
    </rect>
    <path
        d="M 373.2 264.2 v -14.4 c 0 -1.4 1.1 -2.5 2.5 -2.5 h 14.4 c 1.4 0 2.5 1.1 2.5 2.5 v 14.4 c 0 1.4 -1.1 2.5 -2.5 2.5 H 375.7 c -1.4 0 -2.5 -1.1 -2.5 -2.5 z m 46.3 0 v -14.4 c 0 -1.9 -1.6 -3.5 -3.5 -3.5 h -14.4 c -1.9 0 -3.5 1.6 -3.5 3.5 v 14.4 c 0 1.9 1.6 3.5 3.5 3.5 h 14.4 c 1.9 0 3.5 -1.6 3.5 -3.5 z M 415.9 248.3 c 0.8 0 1.5 0.7 1.5 1.5 v 14.4 c 0 0.8 -0.7 1.5 -1.5 1.5 h -14.4 c -0.8 0 -1.5 -0.7 -1.5 -1.5 v -14.4 c 0 -0.8 0.7 -1.5 1.5 -1.5 h 14.4 z m 29.4 15.9 v -14.4 c 0 -1.9 -1.6 -3.5 -3.5 -3.5 h -14.4 c -1.9 0 -3.5 1.6 -3.5 3.5 v 14.4 c 0 1.9 1.6 3.5 3.5 3.5 h 14.4 c 1.9 0 3.5 -1.6 3.5 -3.5 z M 441.8 248.3 c 0.8 0 1.5 0.7 1.5 1.5 v 14.4 c 0 0.8 -0.7 1.5 -1.5 1.5 h -14.4 c -0.8 0 -1.5 -0.7 -1.5 -1.5 v -14.4 c 0 -0.8 0.7 -1.5 1.5 -1.5 h 14.4 z m 29.4 15.9 v -14.4 c 0 -1.9 -1.6 -3.5 -3.5 -3.5 h -14.4 c -1.9 0 -3.5 1.6 -3.5 3.5 v 14.4 c 0 1.9 1.6 3.5 3.5 3.5 h 14.4 c 1.9 0 3.5 -1.6 3.5 -3.5 z M 467.7 248.3 c 0.8 0 1.5 0.7 1.5 1.5 v 14.4 c 0 0.8 -0.7 1.5 -1.5 1.5 h -14.4 c -0.8 0 -1.5 -0.7 -1.5 -1.5 v -14.4 c 0 -0.8 0.7 -1.5 1.5 -1.5 h 14.4 z m 29.4 15.9 v -14.4 c 0 -1.9 -1.6 -3.5 -3.5 -3.5 h -14.4 c -1.9 0 -3.5 1.6 -3.5 3.5 v 14.4 c 0 1.9 1.6 3.5 3.5 3.5 h 14.4 c 1.9 0 3.5 -1.6 3.5 -3.5 z M 493.6 248.3 c 0.8 0 1.5 0.7 1.5 1.5 v 14.4 c 0 0.8 -0.7 1.5 -1.5 1.5 h -14.4 c -0.8 0 -1.5 -0.7 -1.5 -1.5 v -14.4 c 0 -0.8 0.7 -1.5 1.5 -1.5 h 14.4 z M 375.7 292.3 h 14.4 c 1.4 0 2.5 -1.1 2.5 -2.5 v -14.4 c 0 -1.4 -1.1 -2.5 -2.5 -2.5 H 375.7 c -1.4 0 -2.5 1.1 -2.5 2.5 v 14.4 c 0 1.4 1.1 2.5 2.5 2.5 z m 25.9 0 h 14.4 c 1.4 0 2.5 -1.1 2.5 -2.5 v -14.4 c 0 -1.4 -1.1 -2.5 -2.5 -2.5 h -14.4 c -1.4 0 -2.5 1.1 -2.5 2.5 v 14.4 c 0 1.4 1.1 2.5 2.5 2.5 z M 445.3 289.7 v -14.4 c 0 -1.9 -1.6 -3.5 -3.5 -3.5 h -14.4 c -1.9 0 -3.5 1.6 -3.5 3.5 v 14.4 c 0 1.9 1.6 3.5 3.5 3.5 h 14.4 c 1.9 0 3.5 -1.6 3.5 -3.5 z M 441.8 273.9 c 0.8 0 1.5 0.7 1.5 1.5 v 14.4 c 0 0.8 -0.7 1.5 -1.5 1.5 h -14.4 c -0.8 0 -1.5 -0.7 -1.5 -1.5 v -14.4 c 0 -0.8 0.7 -1.5 1.5 -1.5 h 14.4 z m 29.4 15.9 v -14.4 c 0 -1.9 -1.6 -3.5 -3.5 -3.5 h -14.4 c -1.9 0 -3.5 1.6 -3.5 3.5 v 14.4 c 0 1.9 1.6 3.5 3.5 3.5 h 14.4 c 1.9 0 3.5 -1.6 3.5 -3.5 z M 467.7 273.9 c 0.8 0 1.5 0.7 1.5 1.5 v 14.4 c 0 0.8 -0.7 1.5 -1.5 1.5 h -14.4 c -0.8 0 -1.5 -0.7 -1.5 -1.5 v -14.4 c 0 -0.8 0.7 -1.5 1.5 -1.5 h 14.4 z m 29.4 15.9 v -14.4 c 0 -1.9 -1.6 -3.5 -3.5 -3.5 h -14.4 c -1.9 0 -3.5 1.6 -3.5 3.5 v 14.4 c 0 1.9 1.6 3.5 3.5 3.5 h 14.4 c 1.9 0 3.5 -1.6 3.5 -3.5 z M 493.6 273.9 c 0.8 0 1.5 0.7 1.5 1.5 v 14.4 c 0 0.8 -0.7 1.5 -1.5 1.5 h -14.4 c -0.8 0 -1.5 -0.7 -1.5 -1.5 v -14.4 c 0 -0.8 0.7 -1.5 1.5 -1.5 h 14.4 z M 375.7 317.8 h 14.4 c 1.4 0 2.5 -1.1 2.5 -2.5 v -14.4 c 0 -1.4 -1.1 -2.5 -2.5 -2.5 H 375.7 c -1.4 0 -2.5 1.1 -2.5 2.5 v 14.4 c 0 1.4 1.1 2.5 2.5 2.5 z m 25.9 0 h 14.4 c 1.4 0 2.5 -1.1 2.5 -2.5 v -14.4 c 0 -1.4 -1.1 -2.5 -2.5 -2.5 h -14.4 c -1.4 0 -2.5 1.1 -2.5 2.5 v 14.4 c 0 1.4 1.1 2.5 2.5 2.5 z m 25.9 0 h 14.4 c 1.4 0 2.5 -1.1 2.5 -2.5 v -14.4 c 0 -1.4 -1.1 -2.5 -2.5 -2.5 h -14.4 c -1.4 0 -2.5 1.1 -2.5 2.5 v 14.4 c 0 1.4 1.1 2.5 2.5 2.5 z M 471.2 315.3 v -14.4 c 0 -1.9 -1.6 -3.5 -3.5 -3.5 h -14.4 c -1.9 0 -3.5 1.6 -3.5 3.5 v 14.4 c 0 1.9 1.6 3.5 3.5 3.5 h 14.4 c 1.9 0 3.5 -1.6 3.5 -3.5 z M 467.7 299.4 c 0.8 0 1.5 0.7 1.5 1.5 v 14.4 c 0 0.8 -0.7 1.5 -1.5 1.5 h -14.4 c -0.8 0 -1.5 -0.7 -1.5 -1.5 v -14.4 c 0 -0.8 0.7 -1.5 1.5 -1.5 h 14.4 z m 29.4 15.9 v -14.4 c 0 -1.9 -1.6 -3.5 -3.5 -3.5 h -14.4 c -1.9 0 -3.5 1.6 -3.5 3.5 v 14.4 c 0 1.9 1.6 3.5 3.5 3.5 h 14.4 c 1.9 0 3.5 -1.6 3.5 -3.5 z M 493.6 299.4 c 0.8 0 1.5 0.7 1.5 1.5 v 14.4 c 0 0.8 -0.7 1.5 -1.5 1.5 h -14.4 c -0.8 0 -1.5 -0.7 -1.5 -1.5 v -14.4 c 0 -0.8 0.7 -1.5 1.5 -1.5 h 14.4 z M 375.7 343.4 h 14.4 c 1.4 0 2.5 -1.1 2.5 -2.5 v -14.4 c 0 -1.4 -1.1 -2.5 -2.5 -2.5 H 375.7 c -1.4 0 -2.5 1.1 -2.5 2.5 v 14.4 c 0 1.4 1.1 2.5 2.5 2.5 z m 25.9 0 h 14.4 c 1.4 0 2.5 -1.1 2.5 -2.5 v -14.4 c 0 -1.4 -1.1 -2.5 -2.5 -2.5 h -14.4 c -1.4 0 -2.5 1.1 -2.5 2.5 v 14.4 c 0 1.4 1.1 2.5 2.5 2.5 z m 25.9 0 h 14.4 c 1.4 0 2.5 -1.1 2.5 -2.5 v -14.4 c 0 -1.4 -1.1 -2.5 -2.5 -2.5 h -14.4 c -1.4 0 -2.5 1.1 -2.5 2.5 v 14.4 c 0 1.4 1.1 2.5 2.5 2.5 z m 25.9 0 h 14.4 c 1.4 0 2.5 -1.1 2.5 -2.5 v -14.4 c 0 -1.4 -1.1 -2.5 -2.5 -2.5 h -14.4 c -1.4 0 -2.5 1.1 -2.5 2.5 v 14.4 c 0 1.4 1.1 2.5 2.5 2.5 z M 497.1 340.8 v -14.4 c 0 -1.9 -1.6 -3.5 -3.5 -3.5 h -14.4 c -1.9 0 -3.5 1.6 -3.5 3.5 v 14.4 c 0 1.9 1.6 3.5 3.5 3.5 h 14.4 c 1.9 0 3.5 -1.6 3.5 -3.5 z M 493.6 324.9 c 0.8 0 1.5 0.7 1.5 1.5 v 14.4 c 0 0.8 -0.7 1.5 -1.5 1.5 h -14.4 c -0.8 0 -1.5 -0.7 -1.5 -1.5 v -14.4 c 0 -0.8 0.7 -1.5 1.5 -1.5 h 14.4 z M 375.7 368.9 h 14.4 c 1.4 0 2.5 -1.1 2.5 -2.5 v -14.4 c 0 -1.4 -1.1 -2.5 -2.5 -2.5 H 375.7 c -1.4 0 -2.5 1.1 -2.5 2.5 v 14.4 c 0 1.4 1.1 2.5 2.5 2.5 z m 25.9 0 h 14.4 c 1.4 0 2.5 -1.1 2.5 -2.5 v -14.4 c 0 -1.4 -1.1 -2.5 -2.5 -2.5 h -14.4 c -1.4 0 -2.5 1.1 -2.5 2.5 v 14.4 c 0 1.4 1.1 2.5 2.5 2.5 z m 25.9 0 h 14.4 c 1.4 0 2.5 -1.1 2.5 -2.5 v -14.4 c 0 -1.4 -1.1 -2.5 -2.5 -2.5 h -14.4 c -1.4 0 -2.5 1.1 -2.5 2.5 v 14.4 c 0 1.4 1.1 2.5 2.5 2.5 z m 25.9 0 h 14.4 c 1.4 0 2.5 -1.1 2.5 -2.5 v -14.4 c 0 -1.4 -1.1 -2.5 -2.5 -2.5 h -14.4 c -1.4 0 -2.5 1.1 -2.5 2.5 v 14.4 c 0 1.4 1.1 2.5 2.5 2.5 z m 25.9 0 h 14.4 c 1.4 0 2.5 -1.1 2.5 -2.5 v -14.4 c 0 -1.4 -1.1 -2.5 -2.5 -2.5 h -14.4 c -1.4 0 -2.5 1.1 -2.5 2.5 v 14.4 c 0 1.4 1.1 2.5 2.5 2.5 z"
        style="fill: url(#uuid-912dbcc5-6d1d-456b-89d2-d6a6796ee548); stroke-width: 0"></path>
    <path
        d="M 360.6 226 c 0 1.2 -0.3 2.3 -0.9 3.1 s -1.4 1.5 -2.5 1.9 c -1.1 0.4 -2.3 0.7 -3.7 0.7 c -1.2 0 -2.3 -0.1 -3.2 -0.3 c -0.9 -0.2 -1.7 -0.4 -2.4 -0.7 v -1.6 c 0.7 0.3 1.6 0.5 2.5 0.8 s 2 0.3 3.1 0.3 c 1.6 0 2.8 -0.3 3.8 -1 c 1 -0.7 1.5 -1.7 1.5 -3 c 0 -0.8 -0.2 -1.5 -0.6 -2 c -0.4 -0.5 -0.9 -1 -1.7 -1.4 c -0.8 -0.4 -1.8 -0.8 -3 -1.2 c -1.1 -0.4 -2.1 -0.8 -3 -1.3 c -0.8 -0.5 -1.4 -1.1 -1.9 -1.8 s -0.7 -1.6 -0.7 -2.7 s 0.3 -2.1 0.8 -2.8 c 0.6 -0.8 1.3 -1.4 2.3 -1.8 s 2.1 -0.6 3.4 -0.6 c 1 0 1.9 0.1 2.8 0.3 s 1.8 0.5 2.5 0.8 l -0.6 1.4 c -1.6 -0.7 -3.2 -1 -4.9 -1 c -1.4 0 -2.6 0.3 -3.5 0.9 c -0.9 0.6 -1.3 1.5 -1.3 2.7 c 0 0.9 0.2 1.6 0.6 2.1 s 0.9 1 1.7 1.3 s 1.6 0.7 2.7 1.1 c 1.2 0.4 2.2 0.9 3.1 1.3 s 1.5 1.1 2 1.7 c 0.5 0.7 0.7 1.6 0.7 2.7 z"
        style="fill: #3c4043; stroke-width: 0"></path>
    <path
        d="M 370.4 215.8 c 1.3 0 2.4 0.3 3.3 0.9 s 1.5 1.4 2 2.5 c 0.4 1.1 0.7 2.3 0.7 3.6 v 1.1 H 365.4 c 0 2 0.5 3.5 1.4 4.6 s 2.3 1.6 4 1.6 c 1 0 1.8 -0.1 2.5 -0.2 c 0.7 -0.1 1.5 -0.4 2.3 -0.8 v 1.5 c -0.8 0.3 -1.5 0.6 -2.3 0.8 c -0.8 0.1 -1.6 0.2 -2.6 0.2 c -2.3 0 -4 -0.7 -5.3 -2.1 c -1.2 -1.4 -1.8 -3.3 -1.8 -5.7 c 0 -1.6 0.3 -2.9 0.8 -4.1 c 0.5 -1.2 1.3 -2.2 2.3 -2.9 c 1 -0.7 2.2 -1 3.6 -1 z M 370.4 217.2 c -1.4 0 -2.5 0.5 -3.4 1.4 c -0.9 0.9 -1.4 2.3 -1.5 4 h 9.1 c 0 -1.6 -0.3 -2.9 -1 -3.9 c -0.7 -1 -1.7 -1.5 -3.2 -1.5 z"
        style="fill: #3c4043; stroke-width: 0"></path>
    <path d="M 382 231.3 h -1.6 v -21.8 h 1.6 v 21.8 z" style="fill: #3c4043; stroke-width: 0"></path>
    <path
        d="M 393 217.4 h -3.6 v 13.9 h -1.6 v -13.9 h -2.8 v -0.9 l 2.8 -0.5 v -1.5 c 0 -1.8 0.4 -3 1.1 -3.9 c 0.8 -0.8 1.9 -1.3 3.4 -1.3 c 0.5 0 1 0 1.5 0.1 s 0.8 0.2 1.2 0.3 l -0.4 1.4 c -0.3 -0.1 -0.7 -0.2 -1.1 -0.3 c -0.4 -0.1 -0.8 -0.1 -1.2 -0.1 c -1 0 -1.8 0.3 -2.2 0.9 s -0.7 1.5 -0.7 2.8 v 1.6 h 3.6 v 1.3 z"
        style="fill: #3c4043; stroke-width: 0"></path>
    <path d="M 394.5 224.4 v -1.5 h 6.9 v 1.5 h -6.9 z" style="fill: #3c4043; stroke-width: 0"></path>
    <path
        d="M 418.3 231.3 l -2.7 -7 h -8.5 l -2.8 7 h -1.7 l 8 -20.5 h 1.6 l 7.8 20.5 h -1.8 z M 415.1 222.8 l -2.8 -7.4 c -0.1 -0.3 -0.2 -0.7 -0.4 -1.3 s -0.4 -1.1 -0.5 -1.5 c -0.1 0.5 -0.3 1 -0.5 1.5 s -0.3 0.9 -0.4 1.3 l -2.8 7.4 h 7.4 z"
        style="fill: #3c4043; stroke-width: 0"></path>
    <path
        d="M 426.9 230.3 c 0.4 0 0.8 0 1.2 -0.1 c 0.4 -0.1 0.7 -0.1 1 -0.2 v 1.3 c -0.3 0.1 -0.7 0.2 -1.1 0.3 c -0.4 0.1 -0.9 0.1 -1.4 0.1 c -1.3 0 -2.2 -0.4 -2.9 -1.1 c -0.7 -0.7 -1 -1.9 -1 -3.5 v -9.7 h -2.3 v -0.9 l 2.3 -0.5 l 0.6 -3.5 h 1 v 3.6 h 4.7 v 1.3 h -4.7 v 9.6 c 0 2.1 0.9 3.2 2.6 3.2 z"
        style="fill: #3c4043; stroke-width: 0"></path>
    <path
        d="M 436.6 230.3 c 0.4 0 0.8 0 1.2 -0.1 c 0.4 -0.1 0.7 -0.1 1 -0.2 v 1.3 c -0.3 0.1 -0.7 0.2 -1.1 0.3 c -0.4 0.1 -0.9 0.1 -1.4 0.1 c -1.3 0 -2.2 -0.4 -2.9 -1.1 c -0.7 -0.7 -1 -1.9 -1 -3.5 v -9.7 h -2.3 v -0.9 l 2.3 -0.5 l 0.6 -3.5 h 1 v 3.6 h 4.7 v 1.3 h -4.7 v 9.6 c 0 2.1 0.9 3.2 2.6 3.2 z"
        style="fill: #3c4043; stroke-width: 0"></path>
    <path
        d="M 447.9 215.8 c 1.3 0 2.4 0.3 3.3 0.9 s 1.5 1.4 2 2.5 c 0.4 1.1 0.7 2.3 0.7 3.6 v 1.1 h -10.9 c 0 2 0.5 3.5 1.4 4.6 s 2.3 1.6 4 1.6 c 1 0 1.8 -0.1 2.5 -0.2 c 0.7 -0.1 1.5 -0.4 2.3 -0.8 v 1.5 c -0.8 0.3 -1.5 0.6 -2.3 0.8 c -0.8 0.1 -1.6 0.2 -2.6 0.2 c -2.3 0 -4 -0.7 -5.3 -2.1 c -1.2 -1.4 -1.8 -3.3 -1.8 -5.7 c 0 -1.6 0.3 -2.9 0.8 -4.1 c 0.5 -1.2 1.3 -2.2 2.3 -2.9 c 1 -0.7 2.2 -1 3.6 -1 z M 447.8 217.2 c -1.4 0 -2.5 0.5 -3.4 1.4 c -0.9 0.9 -1.4 2.3 -1.5 4 h 9.1 c 0 -1.6 -0.3 -2.9 -1 -3.9 c -0.7 -1 -1.7 -1.5 -3.2 -1.5 z"
        style="fill: #3c4043; stroke-width: 0"></path>
    <path
        d="M 464.7 215.8 c 1.7 0 3.1 0.5 4 1.4 s 1.4 2.3 1.4 4.2 v 10 h -1.6 v -9.9 c 0 -1.4 -0.3 -2.5 -1 -3.2 s -1.6 -1 -2.9 -1 c -3.4 0 -5 1.9 -5 5.8 v 8.3 h -1.6 v -15.3 h 1.3 l 0.2 2.6 h 0.1 c 0.4 -0.8 1 -1.5 1.9 -2.1 s 1.9 -0.8 3.3 -0.8 z"
        style="fill: #3c4043; stroke-width: 0"></path>
    <path
        d="M 479.3 230.3 c 0.4 0 0.8 0 1.2 -0.1 c 0.4 -0.1 0.7 -0.1 1 -0.2 v 1.3 c -0.3 0.1 -0.7 0.2 -1.1 0.3 c -0.4 0.1 -0.9 0.1 -1.4 0.1 c -1.3 0 -2.2 -0.4 -2.9 -1.1 c -0.7 -0.7 -1 -1.9 -1 -3.5 v -9.7 h -2.3 v -0.9 l 2.3 -0.5 l 0.6 -3.5 h 1 v 3.6 h 4.7 v 1.3 h -4.7 v 9.6 c 0 2.1 0.9 3.2 2.6 3.2 z"
        style="fill: #3c4043; stroke-width: 0"></path>
    <path
        d="M 485.5 210.5 c 0.8 0 1.1 0.4 1.1 1.2 s -0.4 1.3 -1.1 1.3 s -1.1 -0.4 -1.1 -1.3 s 0.4 -1.2 1.1 -1.2 z M 486.3 216.1 v 15.3 h -1.6 V 216.1 h 1.6 z"
        style="fill: #3c4043; stroke-width: 0"></path>
    <path
        d="M 504.1 223.7 c 0 1.6 -0.3 3 -0.8 4.2 c -0.5 1.2 -1.3 2.1 -2.3 2.8 s -2.3 1 -3.7 1 s -2.6 -0.3 -3.6 -1 s -1.8 -1.6 -2.3 -2.8 c -0.5 -1.2 -0.8 -2.6 -0.8 -4.2 c 0 -2.5 0.6 -4.4 1.9 -5.8 s 2.9 -2.1 5.1 -2.1 c 1.4 0 2.7 0.3 3.7 1 s 1.8 1.6 2.3 2.8 s 0.8 2.6 0.8 4.2 z m -11.9 0 c 0 1.9 0.4 3.5 1.2 4.7 c 0.8 1.2 2.1 1.8 3.9 1.8 s 3.1 -0.6 3.9 -1.8 c 0.8 -1.2 1.3 -2.8 1.3 -4.7 c 0 -1.3 -0.2 -2.4 -0.5 -3.4 c -0.3 -1 -0.9 -1.7 -1.6 -2.3 c -0.8 -0.6 -1.7 -0.8 -2.9 -0.8 c -1.7 0 -3 0.6 -3.9 1.7 s -1.3 2.7 -1.3 4.8 z"
        style="fill: #3c4043; stroke-width: 0"></path>
    <path
        d="M 515.1 215.8 c 1.7 0 3.1 0.5 4 1.4 s 1.4 2.3 1.4 4.2 v 10 h -1.6 v -9.9 c 0 -1.4 -0.3 -2.5 -1 -3.2 s -1.6 -1 -2.9 -1 c -3.4 0 -5 1.9 -5 5.8 v 8.3 h -1.6 v -15.3 h 1.3 l 0.2 2.6 h 0.1 c 0.4 -0.8 1 -1.5 1.9 -2.1 s 1.9 -0.8 3.3 -0.8 z"
        style="fill: #3c4043; stroke-width: 0"></path>
    <rect x="721.8" y="193.8" width="214.5" height="214.5" rx="10.5" ry="10.5"
        style="fill: #ffffff; stroke: url(#uuid-9da05ba8-7f4b-4494-9924-241e93d3b5f9); stroke-width: 3px; stroke-miterlimit: 10">
    </rect>
    <path
        d="M 860.3 250.5 c -6.2 0 -11.2 5 -11.2 11.3 v 0.2 c 0 0.2 0 0.4 0 0.6 c 0 0.2 0 0.3 0.1 0.5 c 0.1 0.5 0.1 1 0.3 1.4 c 1.2 4.9 5.7 8.5 10.9 8.5 c 6.2 0 11.2 -5 11.2 -11.2 s -5 -11.3 -11.2 -11.3 z m 0 19.5 c -4.5 0 -8.2 -3.7 -8.2 -8.2 s 3.7 -8.3 8.2 -8.3 s 8.2 3.7 8.2 8.3 s -3.7 8.2 -8.2 8.2 z M 801.7 287.4 l -0.1 0.1 l 0.1 -0.1 v -0.1 z M 860.3 276.1 c -6 0 -11 4.8 -11.2 10.7 c 0 0.2 0 0.3 0 0.5 v 0.2 c 0 0.1 0 0.2 0 0.3 c 0 0.5 0.1 1.1 0.2 1.6 c 1 5.2 5.6 9.2 11 9.2 c 6.2 0 11.2 -5 11.2 -11.2 s -5 -11.2 -11.2 -11.2 z m 0 19.5 c -4.5 0 -8.2 -3.7 -8.2 -8.2 s 3.7 -8.2 8.2 -8.2 s 8.2 3.7 8.2 8.2 s -3.7 8.2 -8.2 8.2 z m -57.2 15.3 c -1 -5.2 -5.6 -9.1 -11 -9.1 c -6.2 0 -11.3 5 -11.3 11.2 s 5 11.2 11.3 11.2 c 5.5 0 10.1 -3.9 11 -9.1 c 0.1 -0.7 0.2 -1.4 0.2 -2.1 s -0.1 -1.4 -0.2 -2.1 z m -11 10.3 c -4.5 0 -8.3 -3.7 -8.3 -8.2 s 3.7 -8.2 8.3 -8.2 s 8.2 3.7 8.2 8.2 s -3.7 8.2 -8.2 8.2 z M 860.3 301.8 c -5.8 0 -10.5 4.3 -11.2 9.9 c 0 0.3 -0.1 0.5 -0.1 0.8 c 0 0.1 0 0.2 0 0.3 v 0.2 c 0 0.5 0 0.9 0.1 1.3 c 0.7 5.6 5.4 9.9 11.2 9.9 c 6.2 0 11.2 -5 11.2 -11.2 s -5 -11.2 -11.2 -11.2 z m 0 19.5 c -4.5 0 -8.2 -3.7 -8.2 -8.2 s 3.7 -8.2 8.2 -8.2 s 8.2 3.7 8.2 8.2 s -3.7 8.2 -8.2 8.2 z m -57.3 14.6 c -1.2 -4.9 -5.7 -8.5 -10.9 -8.5 c -6.2 0 -11.3 5 -11.3 11.2 s 5 11.2 11.3 11.2 c 5.8 0 10.5 -4.3 11.2 -9.9 c 0.1 -0.4 0.1 -0.9 0.1 -1.3 c 0 -0.9 -0.1 -1.9 -0.3 -2.8 z m -10.9 11 c -4.5 0 -8.3 -3.7 -8.3 -8.2 s 3.7 -8.2 8.3 -8.2 s 8.2 3.7 8.2 8.2 s -3.7 8.2 -8.2 8.2 z M 860.3 327.4 c -5.5 0 -10.1 3.9 -11 9.1 c -0.1 0.3 -0.1 0.5 -0.1 0.8 c 0 0.2 0 0.3 -0.1 0.5 c 0 0.3 0 0.5 0 0.8 c 0 0.2 0 0.3 0 0.5 c 0.3 6 5.2 10.7 11.2 10.7 s 11.2 -5 11.2 -11.2 s -5 -11.2 -11.2 -11.2 z m 0 19.5 c -4.5 0 -8.2 -3.7 -8.2 -8.2 s 3.7 -8.2 8.2 -8.2 s 8.2 3.7 8.2 8.2 s -3.7 8.2 -8.2 8.2 z M 860.3 353 c -5.3 0 -9.7 3.6 -10.9 8.5 c -0.1 0.2 -0.1 0.4 -0.1 0.7 c -0.1 0.3 -0.1 0.5 -0.1 0.8 c -0.1 0.3 -0.1 0.7 -0.1 1.1 v 0.2 c 0 6.2 5 11.2 11.2 11.2 s 11.2 -5 11.2 -11.2 s -5 -11.2 -11.2 -11.2 z m 0 19.5 c -4.5 0 -8.2 -3.7 -8.2 -8.2 s 3.7 -8.2 8.2 -8.2 s 8.2 3.7 8.2 8.2 s -3.7 8.2 -8.2 8.2 z M 813.3 300.2 l -1.7 1.8 l 0.6 0.9 l 1.8 -1.9 l -0.7 -0.7 z M 817.3 304.3 l -3.1 1.6 l 0.5 0.8 l 3.3 -1.7 l -0.7 -0.8 z M 803.1 310.9 l -1.7 1.8 l 0.1 0.3 v 0.3 l -0.1 0.1 l 1.7 1.8 c 0.1 -0.7 0.2 -1.4 0.2 -2.1 s -0.1 -1.4 -0.2 -2.1 z M 849.1 339.1 c 0 -0.2 0 -0.3 0 -0.5 c 0 -0.3 0 -0.6 0 -0.8 c 0 -0.2 0 -0.3 0.1 -0.5 c 0 -0.3 0.1 -0.5 0.1 -0.8 l -14.1 -14.8 l 14 -7.4 c -0.1 -0.4 -0.1 -0.9 -0.1 -1.3 v -0.2 c 0 -0.1 0 -0.2 0 -0.3 c 0 -0.3 0 -0.5 0.1 -0.8 l -14 -7.4 l 14.1 -14.9 c -0.1 -0.5 -0.2 -1.1 -0.2 -1.6 c 0 -0.1 0 -0.2 0 -0.3 v -0.2 c 0 -0.2 0 -0.3 0 -0.5 h -13.8 l 14.2 -22.4 c -0.1 -0.5 -0.2 -0.9 -0.3 -1.4 c 0 -0.2 0 -0.3 -0.1 -0.5 c 0 -0.2 0 -0.4 0 -0.6 l -45.8 24.1 c -0.7 -5.6 -5.4 -9.9 -11.2 -9.9 c -6.2 0 -11.3 5 -11.3 11.2 s 5 11.2 11.3 11.2 c 5.2 0 9.7 -3.6 10.9 -8.5 l 7.9 12.5 l -7.8 8.2 c 0.1 0.7 0.2 1.4 0.2 2.1 s -0.1 1.4 -0.2 2.1 l 7.8 8.2 l -8 12.6 c 0.2 0.9 0.3 1.8 0.3 2.8 c 0 0.4 0 0.9 -0.1 1.3 l 45.8 24.1 c 0 -0.4 0 -0.7 0.1 -1.1 c 0 -0.3 0.1 -0.6 0.1 -0.8 c 0 -0.2 0.1 -0.4 0.1 -0.7 l -14.2 -22.4 h 13.8 z m -57 -43.5 c -4.5 0 -8.3 -3.7 -8.3 -8.2 s 3.7 -8.2 8.3 -8.2 s 8.2 3.7 8.2 8.2 s -3.7 8.2 -8.2 8.2 z M 801.6 287.5 l 0.1 -0.1 v 0.1 l -0.1 0.1 z m 33 50.6 l -7 -11 l 20.9 11 H 834.6 z M 822 318.2 l 4.2 -4.5 l 7.3 7.7 l -7.1 3.8 l -4.4 -7 z M 824.8 324.5 l -5.9 -3.1 l 2.3 -2.5 l 3.5 5.5 z M 822 307.8 l 4.4 -7 l 7.1 3.8 l -7.3 7.7 l -4.2 -4.5 z M 826 299.5 l -7.1 -3.7 l 7.5 -7.9 h 7 l -7.4 11.7 z M 825.1 300.2 l -6.9 3.6 l -3.5 -3.6 l 3.5 -3.6 l 6.9 3.6 z M 824.8 301.5 l -3.5 5.6 l -2.4 -2.5 l 5.9 -3.1 z M 821.4 308.7 l 3.6 3.8 H 819 l 2.4 -3.8 z m 3.6 4.8 l -3.6 3.8 l -2.4 -3.8 h 6 z M 820.7 318.1 l -2.7 2.9 l -3.2 -1.7 l 3.3 -5.3 l 2.6 4.1 z M 817.3 321.7 l -3.2 3.4 l -1.8 -1.9 l 2 -3.1 l 3.1 1.6 z M 818.2 322.2 l 6.9 3.6 l -6.9 3.6 l -3.5 -3.6 l 3.5 -3.6 z M 826 326.5 l 7.4 11.6 h -7 l -7.5 -7.9 l 7.1 -3.7 z M 848.1 336.8 l -20.8 -10.9 l 6.9 -3.6 l 13.9 14.6 z M 834.4 320.9 l -7.1 -7.4 h 21.2 l -14.1 7.4 z M 848.5 312.5 h -21.1 l 7 -7.4 l 14.1 7.4 z M 834.2 303.9 l -6.9 -3.6 l 20.8 -10.9 l -13.9 14.6 z M 848.5 287.9 l -20.9 11 l 7 -11 h 13.9 z m -14.5 -1 h -6.7 l 20 -21.1 l -13.3 21.1 z M 848.1 263.6 l -22.1 23.3 h -22.1 l 44.2 -23.3 z M 825 287.9 l -7.1 7.4 l -14.1 -7.4 h 21.2 z M 817.3 296.1 l -3.2 3.4 l -9.7 -10.2 l 12.9 6.8 z m -12.3 -4.6 l 8.3 8.8 l 0.7 0.7 l 3.2 3.4 l 0.7 0.8 l 2.7 2.9 l -2.6 4.1 l -3.4 -5.3 l -0.5 -0.8 l -2 -3.1 l -0.6 -0.9 l -6.7 -10.5 z m 6.5 12.1 l 1.8 2.8 l -9 4.7 l 7.2 -7.6 z M 813.9 307.3 l 3.3 5.2 h -13.3 l 10 -5.2 z M 817.2 313.5 l -3.3 5.3 l -10 -5.3 h 13.3 z M 804.3 314.9 l 9 4.7 l -1.8 2.8 l -7.2 -7.6 z M 811.7 324.1 l 1.7 1.8 l -8.3 8.8 l 6.7 -10.5 z M 814 326.6 l 3.2 3.4 l -13 6.8 l 9.7 -10.2 z M 818 330.7 l 7.1 7.4 h -21.2 l 14.1 -7.4 z M 803.9 339.1 h 22.1 l 22.1 23.3 l -44.2 -23.3 z m 43.5 21 l -20 -21 h 6.7 l 13.3 21 z m -45.6 -72.7 l -0.1 0.1 l 0.1 -0.1 v 0.1 z"
        style="fill: url(#uuid-dda875a2-7a3a-42ed-b02d-8b5008d17ba0); stroke-width: 0"></path>
    <path
        d="M 812.4 234 l -7.3 -18.7 h -0.1 c 0 0.5 0.1 1.1 0.1 1.8 c 0 0.7 0 1.4 0 2.2 v 14.7 h -1.6 V 213.5 h 2.5 l 7 17.9 h 0.1 l 7.1 -17.9 h 2.5 v 20.5 h -1.7 v -14.9 c 0 -0.7 0 -1.3 0 -2 c 0 -0.7 0.1 -1.3 0.1 -1.8 h -0.1 l -7.4 18.7 h -1.4 z"
        style="fill: #3c4043; stroke-width: 0"></path>
    <path d="M 828.5 234 v -20.5 h 1.7 v 19 h 9.6 v 1.5 h -11.2 z" style="fill: #3c4043; stroke-width: 0"></path>
    <path
        d="M 848.4 213.5 c 4.9 0 7.4 1.9 7.4 5.8 c 0 2 -0.6 3.5 -1.9 4.6 c -1.3 1.1 -3.2 1.7 -5.9 1.7 h -3 v 8.4 h -1.7 v -20.5 h 5.1 z M 848.3 215 h -3.3 v 9.2 h 2.8 c 2 0 3.5 -0.3 4.6 -1.1 c 1.1 -0.7 1.6 -1.9 1.6 -3.7 c 0 -1.5 -0.5 -2.6 -1.4 -3.4 s -2.4 -1.1 -4.4 -1.1 z"
        style="fill: #3c4043; stroke-width: 0"></path>
    <path
        d="M 94 111.8 h 5.6 c 0.3 0 0.6 0.3 0.6 0.6 v 16.9 c 0 0.3 -0.3 0.6 -0.6 0.6 h -5.6 c -5 0 -9.1 -4.1 -9.1 -9.1 h 0 c 0 -5 4.1 -9.1 9.1 -9.1 z"
        style="fill: rgba(212, 159, 117, 0.5); stroke: #d49f75; stroke-width: 2px; stroke-miterlimit: 10"></path>
    <path
        d="M 186 111.8 h 5.6 c 0.3 0 0.6 0.3 0.6 0.6 v 16.9 c 0 0.3 -0.3 0.6 -0.6 0.6 h -5.6 c -5 0 -9.1 -4.1 -9.1 -9.1 h 0 c 0 -5 4.1 -9.1 9.1 -9.1 z"
        transform="translate(369.2,241.7) rotate(-180)"
        style="fill: rgba(212, 159, 117, 0.5); stroke: #d49f75; stroke-width: 2px; stroke-miterlimit: 10"></path>
    <rect x="103.4" y="111.8" width="15.3" height="18.1" rx=".7" ry=".7"
        style="fill: rgba(212, 159, 117, 0.5); stroke: #d49f75; stroke-width: 2px; stroke-miterlimit: 10"></rect>
    <rect x="121.8" y="111.8" width="15.3" height="18.1" rx=".7" ry=".7"
        style="fill: rgba(212, 159, 117, 0.5); stroke: #d49f75; stroke-width: 2px; stroke-miterlimit: 10"></rect>
    <rect x="140.2" y="111.8" width="15.3" height="18.1" rx=".7" ry=".7"
        style="fill: rgba(212, 159, 117, 0.5); stroke: #d49f75; stroke-width: 2px; stroke-miterlimit: 10"></rect>
    <rect x="158.6" y="111.8" width="15.3" height="18.1" rx=".7" ry=".7"
        style="fill: rgba(212, 159, 117, 0.5); stroke: #d49f75; stroke-width: 2px; stroke-miterlimit: 10"></rect>
    <path
        d="M 94 179.8 h 5.6 c 0.3 0 0.6 0.3 0.6 0.6 v 16.9 c 0 0.3 -0.3 0.6 -0.6 0.6 h -5.6 c -5 0 -9.1 -4.1 -9.1 -9.1 h 0 c 0 -5 4.1 -9.1 9.1 -9.1 z"
        style="fill: rgba(212, 159, 117, 0.5); stroke: #d49f75; stroke-width: 2px; stroke-miterlimit: 10"></path>
    <path
        d="M 186 179.8 h 5.6 c 0.3 0 0.6 0.3 0.6 0.6 v 16.9 c 0 0.3 -0.3 0.6 -0.6 0.6 h -5.6 c -5 0 -9.1 -4.1 -9.1 -9.1 h 0 c 0 -5 4.1 -9.1 9.1 -9.1 z"
        transform="translate(369.2,377.6) rotate(180)"
        style="fill: rgba(212, 159, 117, 0.5); stroke: #d49f75; stroke-width: 2px; stroke-miterlimit: 10"></path>
    <rect x="103.4" y="179.8" width="15.3" height="18.1" rx=".7" ry=".7"
        style="fill: rgba(212, 159, 117, 0.5); stroke: #d49f75; stroke-width: 2px; stroke-miterlimit: 10"></rect>
    <rect x="121.8" y="179.8" width="15.3" height="18.1" rx=".7" ry=".7"
        style="fill: rgba(212, 159, 117, 0.5); stroke: #d49f75; stroke-width: 2px; stroke-miterlimit: 10"></rect>
    <rect x="140.2" y="179.8" width="15.3" height="18.1" rx=".7" ry=".7"
        style="fill: rgba(212, 159, 117, 0.5); stroke: #d49f75; stroke-width: 2px; stroke-miterlimit: 10"></rect>
    <rect x="158.6" y="179.8" width="15.3" height="18.1" rx=".7" ry=".7"
        style="fill: rgba(212, 159, 117, 0.5); stroke: #d49f75; stroke-width: 2px; stroke-miterlimit: 10"></rect>
    <path
        d="M 94 88 h 5.6 c 0.3 0 0.6 0.3 0.6 0.6 v 16.9 c 0 0.3 -0.3 0.6 -0.6 0.6 h -5.6 c -5 0 -9.1 -4.1 -9.1 -9.1 h 0 c 0 -5 4.1 -9.1 9.1 -9.1 z"
        style="fill: rgba(212, 159, 117, 0.5); stroke: #d49f75; stroke-width: 2px; stroke-miterlimit: 10"></path>
    <path
        d="M 186 88 h 5.6 c 0.3 0 0.6 0.3 0.6 0.6 v 16.9 c 0 0.3 -0.3 0.6 -0.6 0.6 h -5.6 c -5 0 -9.1 -4.1 -9.1 -9.1 h 0 c 0 -5 4.1 -9.1 9.1 -9.1 z"
        transform="translate(369.2,194.2) rotate(-180)"
        style="fill: rgba(212, 159, 117, 0.5); stroke: #d49f75; stroke-width: 2px; stroke-miterlimit: 10"></path>
    <rect x="103.4" y="88" width="15.3" height="18.1" rx=".7" ry=".7"
        style="fill: rgba(212, 159, 117, 0.5); stroke: #d49f75; stroke-width: 2px; stroke-miterlimit: 10"></rect>
    <rect x="121.8" y="88" width="15.3" height="18.1" rx=".7" ry=".7"
        style="fill: rgba(212, 159, 117, 0.5); stroke: #d49f75; stroke-width: 2px; stroke-miterlimit: 10"></rect>
    <rect x="140.2" y="88" width="15.3" height="18.1" rx=".7" ry=".7"
        style="fill: rgba(212, 159, 117, 0.5); stroke: #d49f75; stroke-width: 2px; stroke-miterlimit: 10"></rect>
    <rect x="158.6" y="88" width="15.3" height="18.1" rx=".7" ry=".7"
        style="fill: rgba(212, 159, 117, 0.5); stroke: #d49f75; stroke-width: 2px; stroke-miterlimit: 10"></rect>
    <path
        d="M 94 64.2 h 5.6 c 0.3 0 0.6 0.3 0.6 0.6 v 16.9 c 0 0.3 -0.3 0.6 -0.6 0.6 h -5.6 c -5 0 -9.1 -4.1 -9.1 -9.1 h 0 c 0 -5 4.1 -9.1 9.1 -9.1 z"
        style="fill: rgba(212, 159, 117, 0.5); stroke: #d49f75; stroke-width: 2px; stroke-miterlimit: 10"></path>
    <path
        d="M 186 64.2 h 5.6 c 0.3 0 0.6 0.3 0.6 0.6 v 16.9 c 0 0.3 -0.3 0.6 -0.6 0.6 h -5.6 c -5 0 -9.1 -4.1 -9.1 -9.1 h 0 c 0 -5 4.1 -9.1 9.1 -9.1 z"
        transform="translate(369.2,146.6) rotate(180)"
        style="fill: rgba(212, 159, 117, 0.5); stroke: #d49f75; stroke-width: 2px; stroke-miterlimit: 10"></path>
    <rect x="103.4" y="64.2" width="15.3" height="18.1" rx=".7" ry=".7"
        style="fill: rgba(212, 159, 117, 0.5); stroke: #d49f75; stroke-width: 2px; stroke-miterlimit: 10"></rect>
    <rect x="121.8" y="64.2" width="15.3" height="18.1" rx=".7" ry=".7"
        style="fill: rgba(212, 159, 117, 0.5); stroke: #d49f75; stroke-width: 2px; stroke-miterlimit: 10"></rect>
    <rect x="140.2" y="64.2" width="15.3" height="18.1" rx=".7" ry=".7"
        style="fill: rgba(212, 159, 117, 0.5); stroke: #d49f75; stroke-width: 2px; stroke-miterlimit: 10"></rect>
    <rect x="158.6" y="64.2" width="15.3" height="18.1" rx=".7" ry=".7"
        style="fill: rgba(212, 159, 117, 0.5); stroke: #d49f75; stroke-width: 2px; stroke-miterlimit: 10"></rect>
    <rect x="1" y="1" width="214.5" height="214.5" rx="10.5" ry="10.5"
        style="fill: none; stroke: #d49f75; stroke-width: 2px; stroke-miterlimit: 10"></rect>
    <path d="M 47.5 38.6 H 36.3 V 18.1 h 11.2 v 1.5 h -9.6 v 7.5 h 9 v 1.5 h -9 v 8.5 h 9.6 v 1.5 z"
        style="fill: #3c4043; stroke-width: 0"></path>
    <path
        d="M 67.7 23.1 c 1.5 0 2.7 0.4 3.5 1.3 s 1.3 2.2 1.3 4.1 v 10.2 h -1.6 V 28.5 c 0 -1.4 -0.3 -2.4 -0.9 -3 s -1.4 -1 -2.5 -1 c -1.4 0 -2.6 0.4 -3.4 1.3 s -1.2 2.2 -1.2 3.9 v 8.9 h -1.6 V 28.5 c 0 -1.4 -0.3 -2.4 -0.9 -3 s -1.4 -1 -2.5 -1 c -1.4 0 -2.6 0.4 -3.4 1.3 s -1.2 2.3 -1.2 4.1 v 8.7 h -1.6 V 23.4 h 1.3 l 0.2 2.4 h 0.1 c 0.4 -0.8 1 -1.4 1.7 -1.9 c 0.8 -0.5 1.8 -0.8 3 -0.8 c 1.1 0 2 0.2 2.8 0.7 c 0.8 0.5 1.3 1.2 1.6 2.1 h 0.1 c 0.4 -0.9 1.1 -1.6 1.9 -2.1 c 0.9 -0.5 1.9 -0.8 3.1 -0.8 z"
        style="fill: #3c4043; stroke-width: 0"></path>
    <path
        d="M 79 16.8 v 6 c 0 0.5 0 1.1 0 1.8 c 0 0.6 -0.1 1.1 -0.1 1.5 h 0.1 c 0.4 -0.9 1 -1.6 1.9 -2.2 c 0.9 -0.6 2 -0.9 3.3 -0.9 c 2 0 3.5 0.7 4.6 2 s 1.6 3.3 1.6 5.9 c 0 2.4 -0.6 4.3 -1.6 5.8 c -1.1 1.4 -2.7 2.2 -4.8 2.2 c -1.3 0 -2.3 -0.3 -3.1 -0.8 c -0.8 -0.5 -1.4 -1.2 -1.8 -1.9 h -0.1 l -0.3 2.5 h -1.2 V 16.8 h 1.6 z m 5 7.7 c -1.8 0 -3 0.6 -3.8 1.7 c -0.8 1.1 -1.2 2.7 -1.2 4.8 v 0.2 c 0 2.1 0.4 3.6 1.1 4.7 c 0.7 1.1 1.9 1.6 3.7 1.6 s 2.9 -0.6 3.7 -1.7 s 1.3 -2.8 1.3 -4.9 c 0 -4.3 -1.6 -6.5 -4.7 -6.5 z"
        style="fill: #3c4043; stroke-width: 0"></path>
    <path
        d="M 100.3 23.1 c 1.3 0 2.4 0.3 3.3 0.9 c 0.9 0.6 1.5 1.4 2 2.5 s 0.7 2.3 0.7 3.6 v 1.1 H 95.4 c 0 2 0.5 3.5 1.4 4.6 s 2.3 1.6 4 1.6 c 1 0 1.8 -0.1 2.5 -0.2 c 0.7 -0.1 1.5 -0.4 2.3 -0.8 v 1.5 c -0.8 0.3 -1.5 0.6 -2.3 0.8 c -0.8 0.1 -1.6 0.2 -2.6 0.2 c -2.3 0 -4 -0.7 -5.3 -2.1 c -1.2 -1.4 -1.8 -3.3 -1.8 -5.7 c 0 -1.6 0.3 -2.9 0.8 -4.1 s 1.3 -2.2 2.3 -2.9 s 2.2 -1 3.6 -1 z M 100.3 24.4 c -1.4 0 -2.5 0.5 -3.4 1.4 c -0.9 0.9 -1.4 2.3 -1.5 4 h 9.1 c 0 -1.6 -0.3 -2.9 -1 -3.9 c -0.7 -1 -1.7 -1.5 -3.2 -1.5 z"
        style="fill: #3c4043; stroke-width: 0"></path>
    <path
        d="M 115.9 38.9 c -2 0 -3.6 -0.7 -4.7 -2 s -1.6 -3.2 -1.6 -5.8 s 0.6 -4.6 1.7 -6 s 2.8 -2.1 4.8 -2.1 c 1.3 0 2.3 0.3 3.1 0.8 s 1.4 1.3 1.8 2.1 h 0.1 c 0 -0.5 0 -1 -0.1 -1.5 c 0 -0.6 0 -1 0 -1.5 V 16.8 h 1.6 v 21.8 h -1.3 l -0.2 -2.6 h -0.1 c -0.4 0.8 -1 1.5 -1.8 2.1 s -1.9 0.9 -3.2 0.9 z M 116.1 37.5 c 1.8 0 3 -0.5 3.8 -1.6 s 1.1 -2.6 1.1 -4.6 v -0.3 c 0 -2.1 -0.4 -3.7 -1.1 -4.8 s -2 -1.7 -3.6 -1.7 s -2.9 0.6 -3.7 1.7 c -0.8 1.2 -1.3 2.8 -1.3 4.9 s 0.4 3.7 1.2 4.7 s 2 1.6 3.7 1.6 z"
        style="fill: #3c4043; stroke-width: 0"></path>
    <path
        d="M 133 38.9 c -2 0 -3.6 -0.7 -4.7 -2 s -1.6 -3.2 -1.6 -5.8 s 0.6 -4.6 1.7 -6 s 2.8 -2.1 4.8 -2.1 c 1.3 0 2.3 0.3 3.1 0.8 s 1.4 1.3 1.8 2.1 h 0.1 c 0 -0.5 0 -1 -0.1 -1.5 c 0 -0.6 0 -1 0 -1.5 V 16.8 h 1.6 v 21.8 h -1.3 l -0.2 -2.6 h -0.1 c -0.4 0.8 -1 1.5 -1.8 2.1 s -1.9 0.9 -3.2 0.9 z M 133.2 37.5 c 1.8 0 3 -0.5 3.8 -1.6 s 1.1 -2.6 1.1 -4.6 v -0.3 c 0 -2.1 -0.4 -3.7 -1.1 -4.8 s -2 -1.7 -3.6 -1.7 s -2.9 0.6 -3.7 1.7 c -0.8 1.2 -1.3 2.8 -1.3 4.9 s 0.4 3.7 1.2 4.7 s 2 1.6 3.7 1.6 z"
        style="fill: #3c4043; stroke-width: 0"></path>
    <path
        d="M 145.5 17.7 c 0.8 0 1.1 0.4 1.1 1.2 s -0.4 1.3 -1.1 1.3 s -1.1 -0.4 -1.1 -1.3 s 0.4 -1.2 1.1 -1.2 z M 146.3 23.3 v 15.3 h -1.6 V 23.3 h 1.6 z"
        style="fill: #3c4043; stroke-width: 0"></path>
    <path
        d="M 158.2 23.1 c 1.7 0 3.1 0.5 4 1.4 c 0.9 0.9 1.4 2.3 1.4 4.2 v 10 h -1.6 v -9.9 c 0 -1.4 -0.3 -2.5 -1 -3.2 s -1.6 -1 -2.9 -1 c -3.4 0 -5 1.9 -5 5.8 v 8.3 h -1.6 V 23.3 h 1.3 l 0.2 2.6 h 0.1 c 0.4 -0.8 1 -1.5 1.9 -2.1 s 1.9 -0.8 3.3 -0.8 z"
        style="fill: #3c4043; stroke-width: 0"></path>
    <path
        d="M 174 23.1 c 1.2 0 2.2 0.2 3 0.7 c 0.8 0.5 1.4 1.1 1.9 1.9 h 0.1 l 0.3 -2.3 h 1.3 v 15.7 c 0 2 -0.5 3.6 -1.5 4.7 s -2.7 1.7 -5 1.7 c -1.1 0 -2.2 -0.1 -3 -0.3 s -1.7 -0.4 -2.4 -0.8 v -1.6 c 0.7 0.4 1.6 0.7 2.5 0.9 c 0.9 0.2 1.9 0.3 3 0.3 c 1.7 0 2.9 -0.4 3.7 -1.3 c 0.8 -0.9 1.2 -2.1 1.2 -3.6 v -0.9 c 0 -0.4 0 -0.8 0 -1.2 c 0 -0.4 0 -0.8 0.1 -1.2 h -0.1 c -0.4 1 -1.1 1.7 -1.9 2.2 s -1.9 0.8 -3.1 0.8 c -2 0 -3.5 -0.7 -4.6 -2 c -1.1 -1.3 -1.6 -3.3 -1.6 -5.8 s 0.6 -4.4 1.6 -5.9 c 1.1 -1.4 2.7 -2.2 4.8 -2.2 z M 174.2 24.5 c -1.6 0 -2.9 0.6 -3.7 1.7 s -1.2 2.8 -1.2 4.9 s 0.4 3.7 1.2 4.8 c 0.8 1.1 2 1.6 3.5 1.6 c 1.3 0 2.3 -0.3 3 -0.8 s 1.2 -1.2 1.5 -2.1 s 0.5 -1.9 0.5 -3.1 v -1 c 0 -1.9 -0.4 -3.5 -1.1 -4.5 s -1.9 -1.6 -3.7 -1.6 z"
        style="fill: #3c4043; stroke-width: 0"></path>
    <path
        d="M 36.1 80.8 h -7.5 l 0.1 -0.7 c 0.7 0 1.3 -0.1 1.7 -0.1 c 0.4 -0.1 0.7 -0.3 0.9 -0.5 c 0.2 -0.2 0.3 -0.5 0.4 -0.9 l 2.1 -10 c 0 -0.1 0.1 -0.2 0.1 -0.3 s 0 -0.2 0 -0.3 c 0 -0.4 -0.2 -0.6 -0.6 -0.6 c -0.2 0 -0.4 0 -0.6 0.1 s -0.5 0.1 -0.8 0.1 c -0.3 0.1 -0.5 0.1 -0.8 0.2 l 0.2 -0.8 l 4.5 -1.3 h 0.7 l -2.8 12.9 c 0 0.1 0 0.2 0 0.2 c 0 0.1 0 0.2 0 0.2 c 0 0.4 0.2 0.7 0.6 0.8 c 0.4 0.2 1 0.3 1.9 0.3 l -0.1 0.7 z"
        style="fill: #3c4043; stroke-width: 0"></path>
    <path
        d="M 36.2 104.5 h -9.2 l 0.2 -0.8 l 4.3 -3.5 c 0.9 -0.8 1.7 -1.5 2.3 -2.1 c 0.6 -0.6 1.1 -1.2 1.5 -1.7 c 0.4 -0.5 0.7 -1 0.8 -1.6 s 0.3 -1.1 0.3 -1.7 c 0 -0.7 -0.2 -1.3 -0.6 -1.7 s -1 -0.6 -1.8 -0.6 s -1.5 0.2 -2 0.5 c -0.6 0.3 -1.2 1 -1.9 1.9 l -0.5 -0.2 c 0.7 -1.1 1.4 -2 2.3 -2.6 c 0.9 -0.7 1.9 -1 3.1 -1 c 1.1 0 2 0.3 2.6 0.9 c 0.7 0.6 1 1.4 1 2.4 c 0 0.8 -0.2 1.6 -0.6 2.3 c -0.4 0.7 -1 1.4 -1.7 2.2 s -1.8 1.6 -3 2.6 l -3.6 3 l 0 0.1 l 1.6 -0.1 h 3.3 c 0.4 0 0.8 -0.1 1 -0.2 s 0.5 -0.3 0.7 -0.6 s 0.5 -0.7 0.8 -1.1 h 0.7 l -1.6 3.8 z"
        style="fill: #3c4043; stroke-width: 0"></path>
    <path
        d="M 30.2 128.5 c -0.7 0 -1.2 -0.1 -1.5 -0.2 c -0.3 -0.1 -0.6 -0.3 -0.7 -0.5 c -0.1 -0.2 -0.2 -0.4 -0.2 -0.6 c 0 -0.3 0.1 -0.5 0.3 -0.8 s 0.5 -0.4 0.8 -0.4 c 0.3 0 0.5 0.1 0.7 0.2 c 0.2 0.1 0.4 0.3 0.6 0.4 s 0.5 0.3 0.8 0.4 s 0.7 0.2 1.1 0.2 c 0.6 0 1.2 -0.1 1.7 -0.3 s 1 -0.6 1.4 -1.1 c 0.4 -0.5 0.5 -1.2 0.5 -2.1 c 0 -0.6 -0.2 -1.1 -0.5 -1.6 s -0.8 -0.8 -1.3 -1 c -0.6 -0.3 -1.2 -0.4 -1.9 -0.4 h -0.5 l 0.2 -0.9 h 0.3 c 0.7 0 1.3 -0.2 1.9 -0.5 c 0.6 -0.3 1.2 -0.8 1.6 -1.3 s 0.7 -1.2 0.7 -1.9 c 0 -0.6 -0.2 -1.1 -0.6 -1.4 c -0.4 -0.3 -0.9 -0.4 -1.5 -0.4 c -0.8 0 -1.4 0.2 -1.9 0.5 c -0.5 0.3 -1.1 0.8 -1.6 1.5 l -0.5 -0.3 c 0.7 -1 1.4 -1.8 2.2 -2.3 c 0.8 -0.5 1.7 -0.8 2.8 -0.8 c 1 0 1.8 0.3 2.3 0.8 s 0.8 1.1 0.8 1.9 c 0 0.7 -0.1 1.2 -0.4 1.7 c -0.3 0.5 -0.7 0.9 -1.2 1.3 c -0.5 0.4 -1.1 0.8 -1.8 1.1 v 0.1 c 0.8 0.3 1.4 0.6 1.9 1.1 s 0.8 1.2 0.8 2 c 0 0.9 -0.2 1.7 -0.6 2.4 s -1 1.3 -1.7 1.7 s -1.5 0.8 -2.4 1.1 c -0.9 0.3 -1.8 0.4 -2.8 0.4 z"
        style="fill: #3c4043; stroke-width: 0"></path>
    <path
        d="M 32.9 195.5 h -0.8 l -1.3 -12.8 c -0.1 -0.5 -0.2 -1 -0.3 -1.3 c -0.1 -0.3 -0.3 -0.5 -0.6 -0.7 c -0.2 -0.1 -0.6 -0.2 -1 -0.2 l 0.1 -0.7 h 5.8 l -0.1 0.7 c -0.6 0 -1.1 0.1 -1.4 0.4 s -0.5 0.6 -0.5 1.2 c 0 0.1 0 0.2 0 0.4 c 0 0.2 0 0.3 0 0.4 l 0.7 6.8 l 0.2 2.8 h 0.1 l 1.4 -2.1 l 5.1 -7.6 c 0.2 -0.3 0.4 -0.6 0.5 -0.9 c 0.1 -0.3 0.2 -0.5 0.2 -0.7 c 0 -0.2 -0.1 -0.4 -0.3 -0.5 s -0.6 -0.1 -1.1 -0.1 l 0.1 -0.7 h 5.1 l -0.1 0.7 c -0.3 0 -0.6 0 -0.8 0.1 c -0.3 0.1 -0.5 0.2 -0.7 0.4 c -0.2 0.2 -0.5 0.4 -0.7 0.8 s -0.6 0.8 -0.9 1.3 l -8.7 12.4 z"
        style="fill: #3c4043; stroke-width: 0"></path>
    <line x1="48.44" y1="73.3" x2="75.37" y2="73.3" style="fill:none;stroke:#3c4043;stroke-miterlimit:10"></line>
    <path
        d="M 75 73.3 c -1 -1 -1.5 -3.1 -1.6 -4.5 c 1.4 1.9 3.3 3.6 5.5 4.5 c -2.3 0.9 -4 2.7 -5.5 4.5 c 0.1 -1.5 0.5 -3.4 1.6 -4.5 z"
        style="fill: #3c4043; stroke-width: 0"></path>
    <line x1="48.44" y1="97.08" x2="75.37" y2="97.08" style="fill:none;stroke:#3c4043;stroke-miterlimit:10"></line>
    <path
        d="M 75 97.1 c -1 -1 -1.5 -3.1 -1.6 -4.5 c 1.4 1.9 3.3 3.6 5.5 4.5 c -2.3 0.9 -4 2.7 -5.5 4.5 c 0.1 -1.5 0.5 -3.4 1.6 -4.5 z"
        style="fill: #3c4043; stroke-width: 0"></path>
    <line x1="48.44" y1="120.85" x2="75.37" y2="120.85" style="fill:none;stroke:#3c4043;stroke-miterlimit:10"></line>
    <path
        d="M 75 120.8 c -1 -1 -1.5 -3.1 -1.6 -4.5 c 1.4 1.9 3.3 3.6 5.5 4.5 c -2.3 0.9 -4 2.7 -5.5 4.5 c 0.1 -1.5 0.5 -3.4 1.6 -4.5 z"
        style="fill: #3c4043; stroke-width: 0"></path>
    <line x1="228.86" y1="108.25" x2="557.88" y2="108.25"
        style="fill:none;stroke:#3c4043;stroke-miterlimit:10;stroke-width:2px"></line>
    <polygon points="555.7,115.7 568.6,108.3 555.7,100.8 555.7,115.7" style="fill: #3c4043; stroke-width: 0">
    </polygon>
    <line x1="615.85" y1="108.25" x2="940.49" y2="108.25"
        style="fill:none;stroke:#3c4043;stroke-miterlimit:10;stroke-width:2px"></line>
    <polygon points="938.3,115.7 951.3,108.3 938.3,100.8 938.3,115.7" style="fill: #3c4043; stroke-width: 0">
    </polygon>
    <line x1="1001.98" y1="108.54" x2="1053.08" y2="108.54"
        style="fill:none;stroke:#3c4043;stroke-miterlimit:10;stroke-width:2px"></line>
    <polygon points="1050.9,116 1063.8,108.5 1050.9,101.1 1050.9,116" style="fill: #3c4043; stroke-width: 0">
    </polygon>
    <line x1="48.44" y1="188.82" x2="75.37" y2="188.82" style="fill:none;stroke:#3c4043;stroke-miterlimit:10"></line>
    <path
        d="M 75 188.8 c -1 -1 -1.5 -3.1 -1.6 -4.5 c 1.4 1.9 3.3 3.6 5.5 4.5 c -2.3 0.9 -4 2.7 -5.5 4.5 c 0.1 -1.5 0.5 -3.4 1.6 -4.5 z"
        style="fill: #3c4043; stroke-width: 0"></path>
    <circle cx="62.5" cy="153.9" r="2.8" style="fill: #3c4043; stroke-width: 0"></circle>
    <circle cx="62.5" cy="140.8" r="2.8" style="fill: #3c4043; stroke-width: 0"></circle>
    <circle cx="62.5" cy="167" r="2.8" style="fill: #3c4043; stroke-width: 0"></circle>
    <circle cx="1243.5" cy="197.1" r="1.1" style="fill: #3c4043; stroke-width: 0"></circle>
    <circle cx="1250.1" cy="197.1" r="1.1" style="fill: #3c4043; stroke-width: 0"></circle>
    <circle cx="1236.8" cy="197.1" r="1.1" style="fill: #3c4043; stroke-width: 0"></circle>
    <path
        d="M 1079.1 89.2 h 5.6 c 0.3 0 0.6 0.3 0.6 0.6 v 16.9 c 0 0.3 -0.3 0.6 -0.6 0.6 h -5.6 c -5 0 -9.1 -4.1 -9.1 -9.1 h 0 c 0 -5 4.1 -9.1 9.1 -9.1 z"
        style="fill: rgba(212, 159, 117, 0.5); stroke: #d49f75; stroke-width: 2px; stroke-miterlimit: 10"></path>
    <path
        d="M 1171.1 89.2 h 5.6 c 0.3 0 0.6 0.3 0.6 0.6 v 16.9 c 0 0.3 -0.3 0.6 -0.6 0.6 h -5.6 c -5 0 -9.1 -4.1 -9.1 -9.1 h 0 c 0 -5 4.1 -9.1 9.1 -9.1 z"
        transform="translate(2339.3,196.5) rotate(-180)"
        style="fill: rgba(212, 159, 117, 0.5); stroke: #d49f75; stroke-width: 2px; stroke-miterlimit: 10"></path>
    <rect x="1088.4" y="89.2" width="15.3" height="18.1" rx=".7" ry=".7"
        style="fill: rgba(212, 159, 117, 0.5); stroke: #d49f75; stroke-width: 2px; stroke-miterlimit: 10"></rect>
    <rect x="1106.8" y="89.2" width="15.3" height="18.1" rx=".7" ry=".7"
        style="fill: rgba(212, 159, 117, 0.5); stroke: #d49f75; stroke-width: 2px; stroke-miterlimit: 10"></rect>
    <rect x="1125.2" y="89.2" width="15.3" height="18.1" rx=".7" ry=".7"
        style="fill: rgba(212, 159, 117, 0.5); stroke: #d49f75; stroke-width: 2px; stroke-miterlimit: 10"></rect>
    <rect x="1179.7" y="167.7" width="15.6" height="18.7"
        style="fill: rgba(212, 159, 117, 0.5); stroke: #d49f75; stroke-miterlimit: 10"></rect>
    <rect x="1197.9" y="153" width="15.6" height="33.4"
        style="fill: rgba(212, 159, 117, 0.5); stroke: #d49f75; stroke-miterlimit: 10"></rect>
    <rect x="1216.9" y="175.7" width="15.6" height="10.8"
        style="fill: rgba(212, 159, 117, 0.5); stroke: #d49f75; stroke-miterlimit: 10"></rect>
    <rect x="1253.4" y="161.1" width="15.6" height="25.3"
        style="fill: rgba(212, 159, 117, 0.5); stroke: #d49f75; stroke-miterlimit: 10"></rect>
    <rect x="1143.6" y="89.2" width="15.3" height="18.1" rx=".7" ry=".7"
        style="fill: rgba(212, 159, 117, 0.5); stroke: #d49f75; stroke-width: 2px; stroke-miterlimit: 10"></rect>
    <rect x="1065.3" y="1" width="214.5" height="214.5" rx="10.5" ry="10.5"
        style="fill: none; stroke: #d49f75; stroke-width: 2px; stroke-miterlimit: 10"></rect>
    <path
        d="M 1096.8 18.1 v 13.2 c 0 2.3 -0.7 4.2 -2 5.5 c -1.4 1.3 -3.3 2 -5.7 2 s -4.3 -0.7 -5.7 -2 s -2 -3.2 -2 -5.6 V 18.1 h 1.7 V 31.3 c 0 2 0.5 3.5 1.6 4.5 s 2.5 1.6 4.5 1.6 s 3.4 -0.5 4.5 -1.6 s 1.6 -2.5 1.6 -4.4 V 18.1 h 1.6 z"
        style="fill: #3c4043; stroke-width: 0"></path>
    <path
        d="M 1108.8 23.1 c 1.7 0 3.1 0.5 4 1.4 c 0.9 0.9 1.4 2.3 1.4 4.2 v 10 h -1.6 v -9.9 c 0 -1.4 -0.3 -2.5 -1 -3.2 s -1.6 -1 -2.9 -1 c -3.4 0 -5 1.9 -5 5.8 v 8.3 h -1.6 V 23.3 h 1.3 l 0.2 2.6 h 0.1 c 0.4 -0.8 1 -1.5 1.9 -2.1 c 0.9 -0.6 1.9 -0.8 3.3 -0.8 z"
        style="fill: #3c4043; stroke-width: 0"></path>
    <path
        d="M 1124.9 23.1 c 1.3 0 2.4 0.3 3.3 0.9 c 0.9 0.6 1.5 1.4 2 2.5 s 0.7 2.3 0.7 3.6 v 1.1 h -10.9 c 0 2 0.5 3.5 1.4 4.6 s 2.3 1.6 4 1.6 c 1 0 1.8 -0.1 2.5 -0.2 c 0.7 -0.1 1.5 -0.4 2.3 -0.8 v 1.5 c -0.8 0.3 -1.5 0.6 -2.3 0.8 c -0.8 0.1 -1.6 0.2 -2.6 0.2 c -2.3 0 -4 -0.7 -5.3 -2.1 c -1.2 -1.4 -1.8 -3.3 -1.8 -5.7 c 0 -1.6 0.3 -2.9 0.8 -4.1 s 1.3 -2.2 2.3 -2.9 s 2.2 -1 3.6 -1 z M 1124.8 24.4 c -1.4 0 -2.5 0.5 -3.4 1.4 c -0.9 0.9 -1.4 2.3 -1.5 4 h 9.1 c 0 -1.6 -0.3 -2.9 -1 -3.9 c -0.7 -1 -1.7 -1.5 -3.2 -1.5 z"
        style="fill: #3c4043; stroke-width: 0"></path>
    <path
        d="M 1150.8 23.1 c 1.5 0 2.7 0.4 3.5 1.3 s 1.3 2.2 1.3 4.1 v 10.2 h -1.6 V 28.5 c 0 -1.4 -0.3 -2.4 -0.9 -3 c -0.6 -0.7 -1.4 -1 -2.5 -1 c -1.4 0 -2.6 0.4 -3.4 1.3 s -1.2 2.2 -1.2 3.9 v 8.9 h -1.6 V 28.5 c 0 -1.4 -0.3 -2.4 -0.9 -3 c -0.6 -0.7 -1.4 -1 -2.5 -1 c -1.4 0 -2.6 0.4 -3.4 1.3 s -1.2 2.3 -1.2 4.1 v 8.7 h -1.6 V 23.4 h 1.3 l 0.2 2.4 h 0.1 c 0.4 -0.8 1 -1.4 1.7 -1.9 s 1.8 -0.8 3 -0.8 c 1.1 0 2 0.2 2.8 0.7 c 0.8 0.5 1.3 1.2 1.6 2.1 h 0.1 c 0.4 -0.9 1.1 -1.6 1.9 -2.1 s 1.9 -0.8 3.1 -0.8 z"
        style="fill: #3c4043; stroke-width: 0"></path>
    <path
        d="M 1162.2 16.8 v 6 c 0 0.5 0 1.1 0 1.8 c 0 0.6 -0.1 1.1 -0.1 1.5 h 0.1 c 0.4 -0.9 1 -1.6 1.9 -2.2 c 0.9 -0.6 2 -0.9 3.3 -0.9 c 2 0 3.5 0.7 4.6 2 s 1.6 3.3 1.6 5.9 c 0 2.4 -0.6 4.3 -1.6 5.8 c -1.1 1.4 -2.7 2.2 -4.8 2.2 c -1.3 0 -2.3 -0.3 -3.1 -0.8 c -0.8 -0.5 -1.4 -1.2 -1.8 -1.9 h -0.1 l -0.3 2.5 h -1.2 V 16.8 h 1.6 z M 1167.1 24.4 c -1.8 0 -3 0.6 -3.8 1.7 c -0.8 1.1 -1.2 2.7 -1.2 4.8 v 0.2 c 0 2.1 0.4 3.6 1.1 4.7 c 0.7 1.1 1.9 1.6 3.7 1.6 s 2.9 -0.6 3.7 -1.7 s 1.3 -2.8 1.3 -4.9 c 0 -4.3 -1.6 -6.5 -4.7 -6.5 z"
        style="fill: #3c4043; stroke-width: 0"></path>
    <path
        d="M 1183.5 23.1 c 1.3 0 2.4 0.3 3.3 0.9 c 0.9 0.6 1.5 1.4 2 2.5 s 0.7 2.3 0.7 3.6 v 1.1 h -10.9 c 0 2 0.5 3.5 1.4 4.6 s 2.3 1.6 4 1.6 c 1 0 1.8 -0.1 2.5 -0.2 c 0.7 -0.1 1.5 -0.4 2.3 -0.8 v 1.5 c -0.8 0.3 -1.5 0.6 -2.3 0.8 c -0.8 0.1 -1.6 0.2 -2.6 0.2 c -2.3 0 -4 -0.7 -5.3 -2.1 c -1.2 -1.4 -1.8 -3.3 -1.8 -5.7 c 0 -1.6 0.3 -2.9 0.8 -4.1 s 1.3 -2.2 2.3 -2.9 s 2.2 -1 3.6 -1 z M 1183.5 24.4 c -1.4 0 -2.5 0.5 -3.4 1.4 c -0.9 0.9 -1.4 2.3 -1.5 4 h 9.1 c 0 -1.6 -0.3 -2.9 -1 -3.9 c -0.7 -1 -1.7 -1.5 -3.2 -1.5 z"
        style="fill: #3c4043; stroke-width: 0"></path>
    <path
        d="M 1199 38.9 c -2 0 -3.6 -0.7 -4.7 -2 c -1.1 -1.3 -1.6 -3.2 -1.6 -5.8 s 0.6 -4.6 1.7 -6 s 2.8 -2.1 4.8 -2.1 c 1.3 0 2.3 0.3 3.1 0.8 s 1.4 1.3 1.8 2.1 h 0.1 c 0 -0.5 0 -1 -0.1 -1.5 c 0 -0.6 0 -1 0 -1.5 V 16.8 h 1.6 v 21.8 h -1.3 l -0.2 -2.6 h -0.1 c -0.4 0.8 -1 1.5 -1.8 2.1 s -1.9 0.9 -3.2 0.9 z M 1199.2 37.5 c 1.8 0 3 -0.5 3.8 -1.6 s 1.1 -2.6 1.1 -4.6 v -0.3 c 0 -2.1 -0.4 -3.7 -1.1 -4.8 s -2 -1.7 -3.6 -1.7 s -2.9 0.6 -3.7 1.7 c -0.8 1.2 -1.3 2.8 -1.3 4.9 s 0.4 3.7 1.2 4.7 s 2 1.6 3.7 1.6 z"
        style="fill: #3c4043; stroke-width: 0"></path>
    <path
        d="M 1216.2 38.9 c -2 0 -3.6 -0.7 -4.7 -2 c -1.1 -1.3 -1.6 -3.2 -1.6 -5.8 s 0.6 -4.6 1.7 -6 s 2.8 -2.1 4.8 -2.1 c 1.3 0 2.3 0.3 3.1 0.8 s 1.4 1.3 1.8 2.1 h 0.1 c 0 -0.5 0 -1 -0.1 -1.5 c 0 -0.6 0 -1 0 -1.5 V 16.8 h 1.6 v 21.8 h -1.3 l -0.2 -2.6 h -0.1 c -0.4 0.8 -1 1.5 -1.8 2.1 s -1.9 0.9 -3.2 0.9 z M 1216.4 37.5 c 1.8 0 3 -0.5 3.8 -1.6 s 1.1 -2.6 1.1 -4.6 v -0.3 c 0 -2.1 -0.4 -3.7 -1.1 -4.8 s -2 -1.7 -3.6 -1.7 s -2.9 0.6 -3.7 1.7 c -0.8 1.2 -1.3 2.8 -1.3 4.9 s 0.4 3.7 1.2 4.7 s 2 1.6 3.7 1.6 z"
        style="fill: #3c4043; stroke-width: 0"></path>
    <path
        d="M 1228.7 17.7 c 0.8 0 1.1 0.4 1.1 1.2 s -0.4 1.3 -1.1 1.3 s -1.1 -0.4 -1.1 -1.3 s 0.4 -1.2 1.1 -1.2 z M 1229.5 23.3 v 15.3 h -1.6 V 23.3 h 1.6 z"
        style="fill: #3c4043; stroke-width: 0"></path>
    <path
        d="M 1241.3 23.1 c 1.7 0 3.1 0.5 4 1.4 c 0.9 0.9 1.4 2.3 1.4 4.2 v 10 h -1.6 v -9.9 c 0 -1.4 -0.3 -2.5 -1 -3.2 s -1.6 -1 -2.9 -1 c -3.4 0 -5 1.9 -5 5.8 v 8.3 h -1.6 V 23.3 h 1.3 l 0.2 2.6 h 0.1 c 0.4 -0.8 1 -1.5 1.9 -2.1 c 0.9 -0.6 1.9 -0.8 3.3 -0.8 z"
        style="fill: #3c4043; stroke-width: 0"></path>
    <path
        d="M 1257.2 23.1 c 1.2 0 2.2 0.2 3 0.7 c 0.8 0.5 1.4 1.1 1.9 1.9 h 0.1 l 0.3 -2.3 h 1.3 v 15.7 c 0 2 -0.5 3.6 -1.5 4.7 s -2.7 1.7 -5 1.7 c -1.1 0 -2.2 -0.1 -3 -0.3 c -0.9 -0.2 -1.7 -0.4 -2.4 -0.8 v -1.6 c 0.7 0.4 1.6 0.7 2.5 0.9 s 1.9 0.3 3 0.3 c 1.7 0 2.9 -0.4 3.7 -1.3 s 1.2 -2.1 1.2 -3.6 v -0.9 c 0 -0.4 0 -0.8 0 -1.2 c 0 -0.4 0 -0.8 0.1 -1.2 h -0.1 c -0.4 1 -1.1 1.7 -1.9 2.2 s -1.9 0.8 -3.1 0.8 c -2 0 -3.5 -0.7 -4.6 -2 c -1.1 -1.3 -1.6 -3.3 -1.6 -5.8 s 0.6 -4.4 1.6 -5.9 c 1.1 -1.4 2.7 -2.2 4.8 -2.2 z M 1257.3 24.5 c -1.6 0 -2.9 0.6 -3.7 1.7 s -1.2 2.8 -1.2 4.9 s 0.4 3.7 1.2 4.8 c 0.8 1.1 2 1.6 3.5 1.6 c 1.3 0 2.3 -0.3 3 -0.8 s 1.2 -1.2 1.5 -2.1 s 0.5 -1.9 0.5 -3.1 v -1 c 0 -1.9 -0.4 -3.5 -1.1 -4.5 s -1.9 -1.6 -3.7 -1.6 z"
        style="fill: #3c4043; stroke-width: 0"></path>
    <path
        d="M 1188.6 202.4 h -5.8 l 0.1 -0.5 c 0.6 0 1 0 1.3 -0.1 c 0.3 -0.1 0.6 -0.2 0.7 -0.4 c 0.1 -0.2 0.3 -0.4 0.3 -0.7 l 1.6 -7.7 c 0 -0.1 0 -0.2 0.1 -0.3 c 0 -0.1 0 -0.1 0 -0.2 c 0 -0.3 -0.2 -0.4 -0.5 -0.4 c -0.1 0 -0.3 0 -0.5 0 c -0.2 0 -0.4 0.1 -0.6 0.1 c -0.2 0 -0.4 0.1 -0.6 0.2 l 0.1 -0.6 l 3.5 -1 h 0.5 l -2.1 9.9 c 0 0.1 0 0.1 0 0.2 c 0 0.1 0 0.1 0 0.2 c 0 0.3 0.1 0.5 0.4 0.7 c 0.3 0.1 0.8 0.2 1.5 0.2 l -0.1 0.5 z"
        style="fill: #3c4043; stroke-width: 0"></path>
    <path
        d="M 1208.1 202.4 h -7.1 l 0.1 -0.6 l 3.3 -2.7 c 0.7 -0.6 1.3 -1.1 1.8 -1.6 c 0.5 -0.5 0.9 -0.9 1.2 -1.3 s 0.5 -0.8 0.7 -1.2 s 0.2 -0.9 0.2 -1.3 c 0 -0.5 -0.1 -1 -0.5 -1.3 c -0.3 -0.3 -0.8 -0.5 -1.4 -0.5 s -1.1 0.1 -1.6 0.4 s -0.9 0.7 -1.5 1.4 l -0.4 -0.2 c 0.5 -0.9 1.1 -1.6 1.8 -2 s 1.5 -0.8 2.4 -0.8 c 0.9 0 1.6 0.2 2 0.7 s 0.8 1.1 0.8 1.9 c 0 0.6 -0.1 1.2 -0.4 1.8 c -0.3 0.5 -0.7 1.1 -1.3 1.7 s -1.4 1.3 -2.3 2 l -2.8 2.3 l 0 0.1 l 1.2 -0.1 h 2.5 c 0.3 0 0.6 -0.1 0.8 -0.1 s 0.4 -0.3 0.6 -0.5 c 0.2 -0.2 0.4 -0.5 0.6 -0.9 h 0.5 l -1.2 2.9 z"
        style="fill: #3c4043; stroke-width: 0"></path>
    <path
        d="M 1222.4 202.7 c -0.5 0 -0.9 0 -1.2 -0.1 s -0.4 -0.2 -0.5 -0.3 s -0.1 -0.3 -0.1 -0.5 c 0 -0.2 0.1 -0.4 0.2 -0.6 c 0.1 -0.2 0.3 -0.3 0.6 -0.3 c 0.2 0 0.4 0.1 0.5 0.1 s 0.3 0.2 0.5 0.3 s 0.4 0.2 0.6 0.3 s 0.5 0.1 0.9 0.1 c 0.5 0 0.9 -0.1 1.3 -0.3 c 0.4 -0.2 0.8 -0.5 1.1 -0.9 s 0.4 -0.9 0.4 -1.6 c 0 -0.5 -0.1 -0.9 -0.4 -1.2 c -0.3 -0.3 -0.6 -0.6 -1 -0.8 c -0.4 -0.2 -0.9 -0.3 -1.4 -0.3 h -0.4 l 0.1 -0.7 h 0.3 c 0.5 0 1 -0.1 1.5 -0.4 c 0.5 -0.2 0.9 -0.6 1.2 -1 c 0.3 -0.4 0.5 -0.9 0.5 -1.4 c 0 -0.5 -0.1 -0.8 -0.4 -1.1 c -0.3 -0.2 -0.7 -0.3 -1.2 -0.3 c -0.6 0 -1.1 0.1 -1.5 0.4 s -0.8 0.6 -1.2 1.1 l -0.4 -0.2 c 0.5 -0.8 1.1 -1.4 1.7 -1.8 c 0.6 -0.4 1.3 -0.6 2.2 -0.6 c 0.8 0 1.4 0.2 1.8 0.6 s 0.6 0.9 0.6 1.4 c 0 0.5 -0.1 0.9 -0.3 1.3 s -0.5 0.7 -0.9 1 c -0.4 0.3 -0.8 0.6 -1.4 0.9 v 0.1 c 0.6 0.2 1.1 0.5 1.5 0.9 c 0.4 0.4 0.6 0.9 0.6 1.6 c 0 0.7 -0.2 1.3 -0.5 1.8 s -0.8 1 -1.3 1.3 c -0.6 0.4 -1.2 0.6 -1.9 0.8 c -0.7 0.2 -1.4 0.3 -2.2 0.3 z"
        style="fill: #3c4043; stroke-width: 0"></path>
    <path
        d="M 1259.8 202.5 h -0.6 l -1 -9.9 c -0.1 -0.4 -0.1 -0.7 -0.2 -1 c -0.1 -0.2 -0.2 -0.4 -0.4 -0.5 s -0.5 -0.2 -0.8 -0.2 l 0 -0.6 h 4.5 l -0.1 0.6 c -0.5 0 -0.8 0.1 -1.1 0.3 s -0.4 0.5 -0.4 0.9 c 0 0.1 0 0.2 0 0.3 c 0 0.2 0 0.3 0 0.3 l 0.6 5.2 l 0.1 2.1 h 0.1 l 1.1 -1.6 l 3.9 -5.9 c 0.2 -0.2 0.3 -0.5 0.4 -0.7 s 0.2 -0.4 0.2 -0.5 c 0 -0.2 -0.1 -0.3 -0.2 -0.4 s -0.5 -0.1 -0.9 -0.1 l 0 -0.6 h 4 l 0 0.6 c -0.2 0 -0.5 0 -0.7 0.1 s -0.4 0.1 -0.5 0.3 s -0.4 0.3 -0.6 0.6 s -0.4 0.6 -0.7 1 l -6.7 9.6 z"
        style="fill: #3c4043; stroke-width: 0"></path>
    <line x1="228.86" y1="108.25" x2="232.86" y2="108.25"
        style="fill:none;stroke:#3c4043;stroke-miterlimit:10;stroke-width:1.5px"></line>
    <path d="M 241 108.3 h 27.7 c 9.1 0 16.5 7.4 16.5 16.5 v 147.7 c 0 13.8 10.7 25.1 24.3 25.9"
        style="fill: none; stroke: #3c4043; stroke-width: 1.5px; stroke-dasharray: 0 0 8.2 8.2; stroke-miterlimit: 10"></path>
    <line x1="313.61" y1="298.39" x2="317.61" y2="298.39"
        style="fill:none;stroke:#3c4043;stroke-miterlimit:10;stroke-width:1.5px"></line>
    <polygon points="316,304 325.7,298.4 316,292.8 316,304" style="fill: #3c4043; stroke-width: 0"></polygon>
    <line x1="615.85" y1="108.25" x2="619.85" y2="108.25"
        style="fill:none;stroke:#3c4043;stroke-miterlimit:10;stroke-width:1.5px"></line>
    <path d="M 627.6 108.3 h 32.1 c 9.1 0 16.5 7.4 16.5 16.5 v 147.7 c 0 13.8 10.8 25.1 24.5 25.9"
        style="fill: none; stroke: #3c4043; stroke-width: 1.5px; stroke-dasharray: 0 0 7.8 7.8; stroke-miterlimit: 10"></path>
    <line x1="704.6" y1="298.39" x2="708.6" y2="298.39"
        style="fill:none;stroke:#3c4043;stroke-miterlimit:10;stroke-width:1.5px"></line>
    <polygon points="707,304 716.7,298.4 707,292.8 707,304" style="fill: #3c4043; stroke-width: 0"></polygon>
    <line x1="545.57" y1="298.39" x2="549.57" y2="298.39"
        style="fill:none;stroke:#3c4043;stroke-miterlimit:10;stroke-width:1.5px"></line>
    <path d="M 557.7 298.4 h 18.1 c 9.1 0 16.5 -7.4 16.5 -16.5 V 151"
        style="fill: none; stroke: #3c4043; stroke-width: 1.5px; stroke-dasharray: 0 0 8.1 8.1; stroke-miterlimit: 10"></path>
    <line x1="592.25" y1="146.9" x2="592.25" y2="142.9"
        style="fill:none;stroke:#3c4043;stroke-miterlimit:10;stroke-width:1.5px"></line>
    <polygon points="597.9,144.5 592.3,134.8 586.6,144.5 597.9,144.5" style="fill: #3c4043; stroke-width: 0">
    </polygon>
    <line x1="938.26" y1="298.39" x2="942.26" y2="298.39"
        style="fill:none;stroke:#3c4043;stroke-miterlimit:10;stroke-width:1.5px"></line>
    <path d="M 950 298.4 h 8.5 c 9.1 0 16.5 -7.4 16.5 -16.5 V 150.8"
        style="fill: none; stroke: #3c4043; stroke-width: 1.5px; stroke-dasharray: 0 0 7.7 7.7; stroke-miterlimit: 10"></path>
    <line x1="974.95" y1="146.9" x2="974.95" y2="142.9"
        style="fill:none;stroke:#3c4043;stroke-miterlimit:10;stroke-width:1.5px"></line>
    <polygon points="980.6,144.5 975,134.8 969.3,144.5 980.6,144.5" style="fill: #3c4043; stroke-width: 0">
    </polygon>
    <circle cx="592.3" cy="109.4" r="18.5" style="fill: none; stroke: #3c4043; stroke-width: 2px; stroke-miterlimit: 10">
    </circle>
    <path
        d="M 605.5 108.8 v 2.2 c 0 0.7 -0.6 1.2 -1.2 1.2 h -9.7 v 9.6 c 0 0.7 -0.6 1.3 -1.3 1.3 h -2.1 c -0.7 0 -1.3 -0.6 -1.3 -1.3 v -9.6 h -9.7 c -0.7 0 -1.2 -0.6 -1.2 -1.2 v -2.2 c 0 -0.7 0.6 -1.3 1.2 -1.3 h 9.7 v -9.6 c 0 -0.7 0.6 -1.3 1.3 -1.3 h 2.1 c 0.7 0 1.3 0.6 1.3 1.3 v 9.6 h 9.7 c 0.7 0 1.2 0.6 1.2 1.3 z"
        style="fill: #3c4043; stroke-width: 0"></path>
    <circle cx="975" cy="109.4" r="18.5" style="fill: none; stroke: #3c4043; stroke-width: 2px; stroke-miterlimit: 10">
    </circle>
    <path
        d="M 988.2 108.8 v 2.2 c 0 0.7 -0.6 1.2 -1.2 1.2 h -9.7 v 9.6 c 0 0.7 -0.6 1.3 -1.3 1.3 h -2.1 c -0.7 0 -1.3 -0.6 -1.3 -1.3 v -9.6 h -9.7 c -0.7 0 -1.2 -0.6 -1.2 -1.2 v -2.2 c 0 -0.7 0.6 -1.3 1.2 -1.3 h 9.7 v -9.6 c 0 -0.7 0.6 -1.3 1.3 -1.3 h 2.1 c 0.7 0 1.3 0.6 1.3 1.3 v 9.6 h 9.7 c 0.7 0 1.2 0.6 1.2 1.3 z"
        style="fill: #3c4043; stroke-width: 0"></path>
    <polyline points="1177.3,123.6 1177.3,186.4 1269,186.4"
        style="fill: none; stroke: #3c4043; stroke-linecap: square; stroke-miterlimit: 10"></polyline>
    <path d="M 1123.7 115.9 c 0 25.1 11.6 46.6 43.2 46.6" style="fill: none; stroke: #3c4043; stroke-miterlimit: 10">
    </path>
    <path
        d="M 1166.5 162.5 c -1 -1 -1.5 -3.1 -1.6 -4.5 c 1.4 1.9 3.3 3.6 5.5 4.5 c -2.3 0.9 -4 2.7 -5.5 4.5 c 0.1 -1.5 0.5 -3.4 1.6 -4.5 z"
        style="fill: #3c4043; stroke-width: 0"></path>
</svg>
